<?xml version="1.0" encoding="UTF-8" standalone="no"?>
<!-- Created with Inkscape (http://www.inkscape.org/) -->

<svg
   xmlns:dc="http://purl.org/dc/elements/1.1/"
   xmlns:cc="http://creativecommons.org/ns#"
   xmlns:rdf="http://www.w3.org/1999/02/22-rdf-syntax-ns#"
   xmlns:svg="http://www.w3.org/2000/svg"
   xmlns="http://www.w3.org/2000/svg"
   xmlns:sodipodi="http://sodipodi.sourceforge.net/DTD/sodipodi-0.dtd"
   xmlns:inkscape="http://www.inkscape.org/namespaces/inkscape"
   width="16px"
   height="16px"
   id="svg2985"
   version="1.1"
   inkscape:version="0.48.5 r10040"
   sodipodi:docname="New document 2">
  <defs
     id="defs2987" />
  <sodipodi:namedview
     id="base"
     pagecolor="#ffffff"
     bordercolor="#666666"
     borderopacity="1.0"
     inkscape:pageopacity="0.0"
     inkscape:pageshadow="2"
     inkscape:zoom="44.395604"
     inkscape:cx="0.79755573"
     inkscape:cy="5.4475648"
     inkscape:current-layer="layer1"
     showgrid="true"
     inkscape:grid-bbox="true"
     inkscape:document-units="px"
     inkscape:snap-global="false"
     inkscape:window-width="2560"
     inkscape:window-height="1537"
     inkscape:window-x="-8"
     inkscape:window-y="-8"
     inkscape:window-maximized="1">
    <inkscape:grid
       type="xygrid"
       id="grid2993" />
  </sodipodi:namedview>
  <metadata
     id="metadata2990">
    <rdf:RDF>
      <cc:Work
         rdf:about="">
        <dc:format>image/svg+xml</dc:format>
        <dc:type
           rdf:resource="http://purl.org/dc/dcmitype/StillImage" />
        <dc:title></dc:title>
      </cc:Work>
    </rdf:RDF>
  </metadata>
  <g
     id="layer1"
     inkscape:label="Layer 1"
     inkscape:groupmode="layer">
    <path
       style="color:#000000;fill:none;stroke:#2e3436;stroke-width:1px;marker:none;visibility:visible;display:inline;overflow:visible;enable-background:accumulate"
       d="m 11.863532,4.9234995 c -0.520171,-0.015426 -0.726097,1.5903065 0,1.5611992 1.620763,-0.064972 2.65113,-0.284903 3.587796,-1.0407994 0.187692,-0.1514685 0.08626,-0.5419826 -0.164956,-0.5440542 -0.420081,-0.00346 -2.618842,0.047497 -3.42284,0.023654 z"
       id="path3895"
       inkscape:connector-curvature="0"
       sodipodi:nodetypes="sssss" />
    <path
       sodipodi:nodetypes="sssss"
       inkscape:connector-curvature="0"
       id="path3897"
       d="m 11.863532,4.9234995 c -0.520171,-0.015426 -0.726097,1.5903065 0,1.5611992 1.620763,-0.064972 2.65113,-0.284903 3.587796,-1.0407994 0.187692,-0.1514685 0.08626,-0.5419826 -0.164956,-0.5440542 -0.420081,-0.00346 -2.618842,0.047497 -3.42284,0.023654 z"
       style="color:#000000;fill:#eeeeec;fill-opacity:1;fill-rule:nonzero;stroke:none;stroke-width:1px;marker:none;visibility:visible;display:inline;overflow:visible;enable-background:accumulate" />
    <path
       sodipodi:nodetypes="sssss"
       inkscape:connector-curvature="0"
       id="path3893"
       d="m 4.1981901,4.9234995 c 0.5201711,-0.015426 0.7260971,1.5903065 0,1.5611992 C 2.5774272,6.4197266 1.54706,6.1997957 0.61039406,5.4438993 0.42270252,5.2924308 0.52413243,4.9019167 0.77535016,4.8998451 1.1954315,4.8963811 3.3941923,4.9473421 4.1981901,4.9234995 z"
       style="color:#000000;fill:none;stroke:#2e3436;stroke-width:1px;marker:none;visibility:visible;display:inline;overflow:visible;enable-background:accumulate" />
    <path
       inkscape:connector-curvature="0"
       id="path3881"
       d="m 6.8928539,5.1704348 -0.5287419,1.2274433 0.8070271,0.7532038 -0.75137,0.9205825 -0.4174278,0.7811003 0.1947996,0.5579288 1.6975397,0.7253075 0.5287418,0 L 10.065305,9.382797 10.176619,8.8248682 9.8705052,8.0716644 8.9799928,7.1510819 9.7313628,6.4815674 9.2026209,5.1983312 6.8928539,5.1704348 z"
       style="color:#000000;fill:#d3d7cf;fill-opacity:1;fill-rule:nonzero;stroke:#2e3436;stroke-width:0.99999994px;marker:none;visibility:visible;display:inline;overflow:visible;enable-background:accumulate" />
    <path
       sodipodi:nodetypes="szsss"
       inkscape:connector-curvature="0"
       id="path3883"
       d="m 9.5390919,1.7741724 c 0,0.8948998 -0.2772236,1.9982009 -1.5238699,1.9836685 C 6.7685753,3.7433089 6.4356865,2.6690722 6.4356865,1.7741724 c 0,-0.89489968 0.722554,-1.25705 1.5795355,-1.25705 0.8569813,0 1.5238699,0.36215032 1.5238699,1.25705 z"
       style="color:#000000;fill:#d3d7cf;fill-opacity:1;fill-rule:nonzero;stroke:#2e3436;stroke-width:1;marker:none;visibility:visible;display:inline;overflow:visible;enable-background:accumulate" />
    <path
       sodipodi:nodetypes="ssscs"
       inkscape:connector-curvature="0"
       id="path3889"
       d="m 6.7091709,11.019309 c 0.00129,-0.546401 -1.3548067,-0.31912 -1.3601387,0 -0.033127,1.982583 0.2482119,3.241754 0.9067596,4.387091 0.1319613,0.229506 0.339909,0.0411 0.4739875,-0.201706 0,0 -0.022437,-3.412144 -0.020609,-4.185385 z"
       style="color:#000000;fill:#d3d7cf;fill-opacity:1;fill-rule:nonzero;stroke:#2e3436;stroke-width:1px;marker:none;visibility:visible;display:inline;overflow:visible;enable-background:accumulate" />
    <path
       style="color:#000000;fill:#d3d7cf;fill-opacity:1;fill-rule:nonzero;stroke:#2e3436;stroke-width:1px;marker:none;visibility:visible;display:inline;overflow:visible;enable-background:accumulate"
       d="m 9.3085377,11.039543 c -0.00121,-0.546402 1.2709193,-0.31912 1.2759203,0 0.03108,1.982583 -0.232843,3.241753 -0.8506139,4.387091 -0.1237906,0.229506 -0.3188623,0.0411 -0.4446388,-0.201706 0,0 0.021048,-3.412144 0.019332,-4.185385 z"
       id="path3891"
       inkscape:connector-curvature="0"
       sodipodi:nodetypes="ssscs" />
    <path
       style="color:#000000;fill:#eeeeec;fill-opacity:1;fill-rule:nonzero;stroke:none;stroke-width:1px;marker:none;visibility:visible;display:inline;overflow:visible;enable-background:accumulate"
       d="m 6.8928539,5.1704348 -0.5287419,1.2274433 0.8070271,0.7532038 -0.75137,0.9205825 -0.4174278,0.7811003 0.1947996,0.5579287 1.6975397,0.7253076 0.5287418,0 L 10.065305,9.382797 10.176619,8.8248682 9.8705052,8.0716644 8.9799928,7.1510819 9.7313628,6.4815674 9.2026209,5.1983312 6.8928539,5.1704348 z"
       id="path3858"
       inkscape:connector-curvature="0" />
    <path
       style="color:#000000;fill:#eeeeec;fill-opacity:1;fill-rule:nonzero;stroke:none;stroke-width:1;marker:none;visibility:visible;display:inline;overflow:visible;enable-background:accumulate"
       d="m 9.5390919,1.7741724 c 0,0.8948998 -0.2772236,1.9982009 -1.5238699,1.9836685 C 6.7685753,3.7433089 6.4356865,2.6690722 6.4356865,1.7741724 c 0,-0.89489968 0.722554,-1.25705 1.5795355,-1.25705 0.8569813,0 1.5238699,0.36215032 1.5238699,1.25705 z"
       id="path2995"
       inkscape:connector-curvature="0"
       sodipodi:nodetypes="szsss" />
    <path
       sodipodi:type="arc"
       style="color:#000000;fill:#fcaf3e;fill-opacity:1;fill-rule:nonzero;stroke:#555753;stroke-width:0.33985636;stroke-miterlimit:4;stroke-dasharray:none;marker:none;visibility:visible;display:inline;overflow:visible;enable-background:accumulate"
       id="path3817"
       sodipodi:cx="7.354332"
       sodipodi:cy="4.7038364"
       sodipodi:rx="0.64195544"
       sodipodi:ry="0.64195544"
       d="m 7.9962874,4.7038364 a 0.64195544,0.64195544 0 1 1 -1.2839109,0 0.64195544,0.64195544 0 1 1 1.2839109,0 z"
       transform="matrix(1.4712098,0,0,1.4712098,-2.8015107,-2.6753626)" />
    <path
       style="color:#000000;fill:#eeeeec;fill-opacity:1;fill-rule:nonzero;stroke:none;stroke-width:1px;marker:none;visibility:visible;display:inline;overflow:visible;enable-background:accumulate"
       d="m 4.1981901,4.9234995 c 0.5201711,-0.015426 0.7260971,1.5903065 0,1.5611992 C 2.5774272,6.4197266 1.54706,6.1997957 0.61039406,5.4438993 0.42270252,5.2924308 0.52413243,4.9019167 0.77535016,4.8998451 1.1954315,4.8963811 3.3941923,4.9473421 4.1981901,4.9234995 z"
       id="path3848"
       inkscape:connector-curvature="0"
       sodipodi:nodetypes="sssss" />
    <path
       sodipodi:type="arc"
       style="color:#000000;fill:#fcaf3e;fill-opacity:1;fill-rule:nonzero;stroke:#555753;stroke-width:0.32097772;stroke-miterlimit:4;stroke-dasharray:none;marker:none;visibility:visible;display:inline;overflow:visible;enable-background:accumulate"
       id="path3821"
       sodipodi:cx="7.354332"
       sodipodi:cy="4.7038364"
       sodipodi:rx="0.64195544"
       sodipodi:ry="0.64195544"
       d="m 7.9962874,4.7038364 a 0.64195544,0.64195544 0 1 1 -1.2839109,0 0.64195544,0.64195544 0 1 1 1.2839109,0 z"
       transform="matrix(1.5577405,0,0,1.5577405,-0.72406166,-1.6219296)" />
    <path
       style="color:#000000;fill:#eeeeec;fill-opacity:1;fill-rule:nonzero;stroke:none;stroke-width:1px;marker:none;visibility:visible;display:inline;overflow:visible;enable-background:accumulate"
       d="m 6.7091709,11.019309 c 0.00129,-0.546401 -1.3548068,-0.31912 -1.3601388,0 -0.033127,1.982583 0.2482119,3.241754 0.9067597,4.387091 0.1319612,0.229506 0.339909,0.0411 0.4739874,-0.201706 0,0 -0.022437,-3.412144 -0.020608,-4.185385 z"
       id="path3872"
       inkscape:connector-curvature="0"
       sodipodi:nodetypes="ssscs" />
    <path
       transform="matrix(1.5012636,0.41417116,-0.41417117,1.5012635,-2.8343267,0.32754754)"
       d="m 7.9962874,4.7038364 a 0.64195544,0.64195544 0 1 1 -1.2839109,0 0.64195544,0.64195544 0 1 1 1.2839109,0 z"
       sodipodi:ry="0.64195544"
       sodipodi:rx="0.64195544"
       sodipodi:cy="4.7038364"
       sodipodi:cx="7.354332"
       id="path3823"
       style="color:#000000;fill:#fcaf3e;fill-opacity:1;fill-rule:nonzero;stroke:#555753;stroke-width:0.32105884;stroke-miterlimit:4;stroke-dasharray:none;marker:none;visibility:visible;display:inline;overflow:visible;enable-background:accumulate"
       sodipodi:type="arc" />
    <path
       sodipodi:nodetypes="ssscs"
       inkscape:connector-curvature="0"
       id="path3874"
       d="m 9.3085377,11.039543 c -0.00121,-0.546402 1.2709193,-0.31912 1.2759203,0 0.03108,1.982582 -0.232843,3.241753 -0.8506139,4.387091 -0.1237906,0.229506 -0.3188622,0.0411 -0.4446388,-0.201706 0,0 0.021048,-3.412144 0.019332,-4.185385 z"
       style="color:#000000;fill:#eeeeec;fill-opacity:1;fill-rule:nonzero;stroke:none;stroke-width:1px;marker:none;visibility:visible;display:inline;overflow:visible;enable-background:accumulate" />
    <path
       sodipodi:type="arc"
       style="color:#000000;fill:#fcaf3e;fill-opacity:1;fill-rule:nonzero;stroke:#555753;stroke-width:0.31194016;stroke-miterlimit:4;stroke-dasharray:none;marker:none;visibility:visible;display:inline;overflow:visible;enable-background:accumulate"
       id="path3825"
       sodipodi:cx="7.354332"
       sodipodi:cy="4.7038364"
       sodipodi:rx="0.64195544"
       sodipodi:ry="0.64195544"
       d="m 7.9962874,4.7038364 a 0.64195544,0.64195544 0 1 1 -1.2839109,0 0.64195544,0.64195544 0 1 1 1.2839109,0 z"
       transform="matrix(1.5451486,0.42627825,-0.42627825,1.5451486,0.73677932,0.07019605)" />
    <path
       sodipodi:type="arc"
       style="color:#000000;fill:#fcaf3e;fill-opacity:1;fill-rule:nonzero;stroke:#555753;stroke-width:0.32097769;stroke-miterlimit:4;stroke-dasharray:none;marker:none;visibility:visible;display:inline;overflow:visible;enable-background:accumulate"
       id="path3877"
       sodipodi:cx="7.354332"
       sodipodi:cy="4.7038364"
       sodipodi:rx="0.64195544"
       sodipodi:ry="0.64195544"
       d="m 7.9962874,4.7038364 a 0.64195544,0.64195544 0 1 1 -1.2839109,0 0.64195544,0.64195544 0 1 1 1.2839109,0 z"
       transform="matrix(1.5577406,0,0,1.5577406,-6.1532357,-1.6433251)" />
    <path
       transform="matrix(1.6351419,0,0,1.6393075,-3.9792642,-0.2466918)"
       d="m 7.9962874,4.7038364 a 0.64195544,0.64195544 0 1 1 -1.2839109,0 0.64195544,0.64195544 0 1 1 1.2839109,0 z"
       sodipodi:ry="0.64195544"
       sodipodi:rx="0.64195544"
       sodipodi:cy="4.7038364"
       sodipodi:cx="7.354332"
       id="path3879"
       style="color:#000000;fill:#fcaf3e;fill-opacity:1;fill-rule:nonzero;stroke:#555753;stroke-width:0.3053951;stroke-miterlimit:4;stroke-dasharray:none;marker:none;visibility:visible;display:inline;overflow:visible;enable-background:accumulate"
       sodipodi:type="arc" />
  </g>
</svg>
