{
	"asset":{
		"version":"2.0",
		"generator":"Houdini GLTF 2.0 Exporter"
	},
	"accessors":[
		{
			"bufferView":0,
			"componentType":5123,
			"count":1284,
			"type":"SCALAR",
			"min":[0
			],
			"max":[215
			]
		},
		{
			"bufferView":1,
			"componentType":5126,
			"count":216,
			"type":"VEC3",
			"min":[-15.0130444,-2.59111881,-12.1026402
			],
			"max":[15.9037666,26.5396423,21.0985298
			]
		},
		{
			"bufferView":2,
			"componentType":5126,
			"count":216,
			"type":"VEC3",
			"min":[-0.991278887,-0.991278887,-0.991278887
			],
			"max":[0.991278887,0.991278887,0.991278887
			]
		}
	],
	"buffers":[
		{
			"uri":"testCave_data.bin",
			"byteLength":7752,
			"name":"main_buffer"
		}
	],
	"bufferViews":[
		{
			"buffer":0,
			"byteLength":2568,
			"target":34963
		},
		{
			"buffer":0,
			"byteOffset":2568,
			"byteLength":2592,
			"target":34962
		},
		{
			"buffer":0,
			"byteOffset":5160,
			"byteLength":2592,
			"target":34962
		}
	],
	"nodes":[
		{
			"name":"geo1",
			"mesh":0
		}
	],
	"meshes":[
		{
			"primitives":[
				{
					"attributes":{
						"POSITION":1,
						"NORMAL":2
					},
					"indices":0
				}
			],
			"name":"normal1"
		}
	],
	"scenes":[
		{
			"nodes":[0
			]
		}
	],
	"scene":0
}
