<?xml version="1.0" encoding="UTF-8" standalone="no"?>
<!-- Created with Inkscape (http://www.inkscape.org/) -->
<svg
   xmlns:dc="http://purl.org/dc/elements/1.1/"
   xmlns:cc="http://web.resource.org/cc/"
   xmlns:rdf="http://www.w3.org/1999/02/22-rdf-syntax-ns#"
   xmlns:svg="http://www.w3.org/2000/svg"
   xmlns="http://www.w3.org/2000/svg"
   xmlns:sodipodi="http://sodipodi.sourceforge.net/DTD/sodipodi-0.dtd"
   xmlns:inkscape="http://www.inkscape.org/namespaces/inkscape"
   width="16px"
   height="16px"
   id="svg3114"
   sodipodi:version="0.32"
   inkscape:version="0.44"
   sodipodi:docbase="E:\dev_clean\src\houdini\support\icons\datatypes"
   sodipodi:docname="float.svg">
  <defs
     id="defs3116" />
  <sodipodi:namedview
     id="base"
     pagecolor="#ffffff"
     bordercolor="#666666"
     borderopacity="1.0"
     inkscape:pageopacity="0.0"
     inkscape:pageshadow="2"
     inkscape:zoom="22.197802"
     inkscape:cx="8"
     inkscape:cy="7.265018"
     inkscape:current-layer="layer1"
     showgrid="true"
     inkscape:grid-bbox="false"
     inkscape:document-units="px"
     inkscape:window-width="853"
     inkscape:window-height="573"
     inkscape:window-x="488"
     inkscape:window-y="179" />
  <metadata
     id="metadata3119">
    <rdf:RDF>
      <cc:Work
         rdf:about="">
        <dc:format>image/svg+xml</dc:format>
        <dc:type
           rdf:resource="http://purl.org/dc/dcmitype/StillImage" />
      </cc:Work>
    </rdf:RDF>
  </metadata>
  <g
     id="layer1"
     inkscape:label="Layer 1"
     inkscape:groupmode="layer">
    <path
       style="font-size:12px;font-style:normal;font-variant:normal;font-weight:normal;font-stretch:normal;text-align:start;line-height:125%;writing-mode:lr-tb;text-anchor:start;fill:#204a87;fill-opacity:1;stroke:none;stroke-width:1px;stroke-linecap:butt;stroke-linejoin:miter;stroke-opacity:1;font-family:Century"
       d="M 8.0122823,10.808617 C 8.3339812,10.80862 8.6074293,10.924432 8.8326251,11.156056 C 9.0578127,11.387685 9.1704081,11.664349 9.170413,11.986051 C 9.1704081,12.320622 9.0578127,12.60372 8.8326251,12.835346 C 8.6074293,13.066973 8.3307643,13.182785 8.0026301,13.182785 C 7.6809248,13.182785 7.405869,13.066973 7.1774629,12.835346 C 6.9490517,12.60372 6.8348471,12.32384 6.8348488,11.995701 C 6.8348471,11.667565 6.9490517,11.387685 7.1774629,11.156056 C 7.405869,10.924432 7.6841415,10.80862 8.0122823,10.808617 L 8.0122823,10.808617 z "
       id="path3176" />
    <path
       id="path3174"
       style="font-size:12px;font-style:normal;font-variant:normal;font-weight:normal;font-stretch:normal;text-align:start;line-height:125%;writing-mode:lr-tb;text-anchor:start;fill:#204a87;fill-opacity:1;stroke:none;stroke-width:1px;stroke-linecap:butt;stroke-linejoin:miter;stroke-opacity:1;font-family:Century"
       d="M 10.462303,7.5890099 C 10.849884,7.0722358 11.257345,6.7020429 11.684686,6.4784306 C 12.112019,6.2548303 12.581592,6.1430271 13.093407,6.1430208 C 13.918261,6.1430271 14.610199,6.422535 15.169221,6.9815455 C 15.72823,7.5405669 16.007739,8.2474114 16.007746,9.1020811 C 16.007739,10.130673 15.677297,10.985346 15.016424,11.666103 C 14.355536,12.346861 13.53813,12.687239 12.564205,12.68724 C 11.878474,12.687239 11.267283,12.504627 10.730631,12.139403 C 10.193973,11.77418 9.7554565,11.203984 9.415079,10.428813 C 9.074699,9.6536469 8.9045096,8.7492834 8.9045109,7.7157204 C 8.9045096,6.5976934 9.1132085,5.5840112 9.5306087,4.6746709 C 9.9480064,3.7653461 10.480935,3.0833467 11.129396,2.6286706 C 11.777852,2.1740142 12.454882,1.946681 13.160489,1.9466705 C 13.885963,1.946681 14.502122,2.1454422 15.008971,2.5429547 C 15.431331,2.8659517 15.642515,3.2535361 15.642523,3.7057089 C 15.642515,4.0088287 15.549346,4.2572802 15.363014,4.4510642 C 15.176668,4.6448645 14.949335,4.7417606 14.681014,4.7417529 C 14.432556,4.7417606 14.22013,4.6597716 14.043736,4.4957856 C 13.867328,4.3318156 13.779128,4.1380235 13.779134,3.9144084 C 13.779128,3.7653461 13.838756,3.5963991 13.958019,3.4075668 C 14.067333,3.2336599 14.121991,3.0970116 14.121997,2.9976215 C 14.121991,2.8584981 14.054909,2.7442104 13.920752,2.6547581 C 13.741861,2.5404801 13.495893,2.4833363 13.18285,2.4833263 C 12.700849,2.4833363 12.261089,2.6348918 11.863571,2.937993 C 11.466045,3.2411134 11.129393,3.7616193 10.853614,4.4995124 C 10.57783,5.2374213 10.43994,6.0660071 10.439942,6.9852721 C 10.43994,7.1194415 10.447393,7.3206873 10.462303,7.5890099 L 10.462303,7.5890099 z M 12.683462,6.8734689 C 12.062328,6.8734745 11.554245,7.0983232 11.159211,7.5480155 C 10.76417,7.9977176 10.56665,8.6300267 10.566652,9.4449446 C 10.56665,10.329434 10.757958,11.005223 11.140576,11.47231 C 11.523189,11.9394 12.010154,12.172945 12.601473,12.172944 C 13.187814,12.172945 13.659871,11.951823 14.017648,11.509578 C 14.375412,11.067335 14.554297,10.406454 14.554304,9.5269337 C 14.554297,8.592759 14.389077,7.9169708 14.058642,7.4995673 C 13.728195,7.0821738 13.269803,6.8734745 12.683462,6.8734689 L 12.683462,6.8734689 z " />
    <path
       style="font-size:12px;font-style:normal;font-variant:normal;font-weight:normal;font-stretch:normal;text-align:start;line-height:125%;writing-mode:lr-tb;text-anchor:start;fill:#204a87;fill-opacity:1;stroke:none;stroke-width:1px;stroke-linecap:butt;stroke-linejoin:miter;stroke-opacity:1;font-family:Century"
       d="M 3.4230482,2.0815051 C 4.3798409,2.0815156 5.1771716,2.454421 5.8150427,3.2002226 C 6.6050069,4.1177755 6.9999922,5.5088109 7,7.3733329 C 6.9999922,9.1053855 6.6565266,10.424047 5.9696024,11.329323 C 5.2826645,12.234602 4.4534407,12.68724 3.4819281,12.68724 C 2.5447536,12.68724 1.7621429,12.306975 1.1340935,11.546443 C 0.3490275,10.589647 -0.043504543,9.2084249 -0.0435038,7.4027729 C -0.043504543,5.6854503 0.32694757,4.3189482 1.0678536,3.3032623 C 1.6615565,2.4887675 2.4466206,2.0815156 3.4230482,2.0815051 L 3.4230482,2.0815051 z M 3.4672082,2.6114239 C 2.819526,2.6114337 2.3141411,2.9217794 1.9510516,3.5424617 C 1.5879567,4.163162 1.4064106,5.4499311 1.4064129,7.4027729 C 1.4064106,9.3114644 1.59409,10.58474 1.9694516,11.222603 C 2.3448076,11.860469 2.8489659,12.179401 3.4819281,12.179401 C 4.1197884,12.179401 4.6104534,11.885003 4.9539247,11.296203 C 5.361171,10.594554 5.564797,9.3139188 5.5648034,7.4542927 C 5.564797,5.5308908 5.3734376,4.2428951 4.9907246,3.5903017 C 4.6080001,2.937726 4.1001617,2.6114337 3.4672082,2.6114239 L 3.4672082,2.6114239 z "
       id="text1872" />
  </g>
</svg>
