<?xml version="1.0" encoding="UTF-8" standalone="no"?>
<!-- Created with Inkscape (http://www.inkscape.org/) -->
<svg
   xmlns:dc="http://purl.org/dc/elements/1.1/"
   xmlns:cc="http://web.resource.org/cc/"
   xmlns:rdf="http://www.w3.org/1999/02/22-rdf-syntax-ns#"
   xmlns:svg="http://www.w3.org/2000/svg"
   xmlns="http://www.w3.org/2000/svg"
   xmlns:sodipodi="http://sodipodi.sourceforge.net/DTD/sodipodi-0.dtd"
   xmlns:inkscape="http://www.inkscape.org/namespaces/inkscape"
   width="16px"
   height="16px"
   id="svg1872"
   sodipodi:version="0.32"
   inkscape:version="0.44"
   sodipodi:docbase="E:\dev_clean\src\houdini\support\icons\datatypes"
   sodipodi:docname="label.svg">
  <defs
     id="defs1874" />
  <sodipodi:namedview
     id="base"
     pagecolor="#ffffff"
     bordercolor="#666666"
     borderopacity="1.0"
     inkscape:pageopacity="0.0"
     inkscape:pageshadow="2"
     inkscape:zoom="22.197802"
     inkscape:cx="8"
     inkscape:cy="8"
     inkscape:current-layer="layer1"
     showgrid="true"
     inkscape:grid-bbox="true"
     inkscape:document-units="px"
     inkscape:window-width="853"
     inkscape:window-height="573"
     inkscape:window-x="478"
     inkscape:window-y="115" />
  <metadata
     id="metadata1877">
    <rdf:RDF>
      <cc:Work
         rdf:about="">
        <dc:format>image/svg+xml</dc:format>
        <dc:type
           rdf:resource="http://purl.org/dc/dcmitype/StillImage" />
      </cc:Work>
    </rdf:RDF>
  </metadata>
  <g
     id="layer1"
     inkscape:label="Layer 1"
     inkscape:groupmode="layer">
    <path
       style="font-size:12px;font-style:normal;font-variant:normal;font-weight:normal;font-stretch:normal;text-align:start;line-height:125%;writing-mode:lr-tb;text-anchor:start;fill:black;fill-opacity:1;stroke:none;stroke-width:1px;stroke-linecap:butt;stroke-linejoin:miter;stroke-opacity:1;font-family:Century"
       d="M 0,3.3339844 L 4.0136719,3.3339844 L 4.0136719,3.7734375 L 3.0527344,3.7734375 C 2.9003873,3.7734457 2.7880828,3.8134847 2.7158203,3.8935547 C 2.6435517,3.9736408 2.6074189,4.0996173 2.6074219,4.2714844 L 2.6074219,11.109375 C 2.6074189,11.273438 2.6533173,11.389649 2.7451172,11.458008 C 2.8369109,11.526368 3.021481,11.560547 3.2988281,11.560547 L 4.5175781,11.560547 C 5.1660101,11.560547 5.696283,11.344727 6.1083984,10.913086 C 6.5205009,10.481447 6.8203053,9.7324241 7.0078125,8.6660156 L 7.4179688,8.6660156 L 7.21875,12 L 0,12 L 0,11.560547 L 0.70898438,11.560547 C 0.95117055,11.560547 1.1210923,11.514649 1.21875,11.422852 C 1.3164046,11.331055 1.3652326,11.183595 1.3652344,10.980469 L 1.3652344,4.2128906 C 1.3652326,4.0683673 1.3242171,3.9589924 1.2421875,3.8847656 C 1.1601547,3.8105551 1.0390611,3.7734457 0.87890625,3.7734375 L 0,3.7734375 L 0,3.3339844 z "
       id="text1880" />
    <rect
       style="opacity:1;color:black;fill:none;fill-opacity:1;fill-rule:evenodd;stroke:#2e3436;stroke-width:1.00000024;stroke-linecap:butt;stroke-linejoin:miter;marker:none;marker-start:none;marker-mid:none;marker-end:none;stroke-miterlimit:4;stroke-dasharray:1.00000024,1.00000024;stroke-dashoffset:0.50000012;stroke-opacity:1;visibility:visible;display:inline;overflow:visible"
       id="rect1884"
       width="6.0000024"
       height="11.999998"
       x="10.500003"
       y="1.4999986" />
  </g>
</svg>
