<?xml version="1.0" encoding="UTF-8" standalone="no"?>
<!-- Generator: Adobe Illustrator 15.0.0, SVG Export Plug-In . SVG Version: 6.00 Build 0)  -->
<svg
   xmlns:dc="http://purl.org/dc/elements/1.1/"
   xmlns:cc="http://creativecommons.org/ns#"
   xmlns:rdf="http://www.w3.org/1999/02/22-rdf-syntax-ns#"
   xmlns:svg="http://www.w3.org/2000/svg"
   xmlns="http://www.w3.org/2000/svg"
   xmlns:xlink="http://www.w3.org/1999/xlink"
   xmlns:sodipodi="http://sodipodi.sourceforge.net/DTD/sodipodi-0.dtd"
   xmlns:inkscape="http://www.inkscape.org/namespaces/inkscape"
   version="1.0"
   id="Layer_1"
   x="0px"
   y="0px"
   width="48"
   height="48"
   viewBox="0 0 612 792"
   enable-background="new 0 0 612 792"
   xml:space="preserve"
   sodipodi:version="0.32"
   inkscape:version="0.46"
   sodipodi:docname="Factory.svg"
   inkscape:output_extension="org.inkscape.output.svg.inkscape"><metadata
   id="metadata241"><rdf:RDF><cc:Work
       rdf:about=""><dc:format>image/svg+xml</dc:format><dc:type
         rdf:resource="http://purl.org/dc/dcmitype/StillImage" /></cc:Work></rdf:RDF></metadata><defs
   id="defs239"><inkscape:perspective
     sodipodi:type="inkscape:persp3d"
     inkscape:vp_x="0 : 24 : 1"
     inkscape:vp_y="0 : 1000 : 0"
     inkscape:vp_z="48 : 24 : 1"
     inkscape:persp3d-origin="24 : 16 : 1"
     id="perspective93" /><linearGradient
     id="linearGradient3658"><stop
       style="stop-color:#000000;stop-opacity:0.45045045;"
       offset="0"
       id="stop3660" /><stop
       style="stop-color:#000000;stop-opacity:0;"
       offset="1"
       id="stop3662" /></linearGradient><linearGradient
     inkscape:collect="always"
     xlink:href="#SVGID_5_"
     id="linearGradient2745"
     gradientUnits="userSpaceOnUse"
     x1="299.07669"
     y1="402.00391"
     x2="303.99551"
     y2="406.7128" /><linearGradient
     inkscape:collect="always"
     xlink:href="#SVGID_5_"
     id="linearGradient2747"
     gradientUnits="userSpaceOnUse"
     x1="303.03519"
     y1="400.19241"
     x2="307.953"
     y2="404.90039" /><linearGradient
     inkscape:collect="always"
     xlink:href="#SVGID_5_"
     id="linearGradient2749"
     gradientUnits="userSpaceOnUse"
     x1="306.69189"
     y1="398.3945"
     x2="311.61069"
     y2="403.10349" /><linearGradient
     inkscape:collect="always"
     xlink:href="#SVGID_5_"
     id="linearGradient2751"
     gradientUnits="userSpaceOnUse"
     x1="311.5332"
     y1="401.27341"
     x2="315.1214"
     y2="404.70859" /><linearGradient
     inkscape:collect="always"
     xlink:href="#SVGID_5_"
     id="linearGradient2753"
     gradientUnits="userSpaceOnUse"
     x1="314.418"
     y1="399.85449"
     x2="318.00711"
     y2="403.2905" /><radialGradient
     id="SVGID_1_"
     cx="315.11041"
     cy="401.8027"
     r="28.1866"
     gradientUnits="userSpaceOnUse">
			<stop
   offset="0"
   style="stop-color:#7F4F1B"
   id="stop18" />
			<stop
   offset="0.0067"
   style="stop-color:#7F4F1B;stop-opacity:0.9933"
   id="stop20" />
			<stop
   offset="0.2193"
   style="stop-color:#6F4E1C;stop-opacity:0.7807"
   id="stop22" />
			<stop
   offset="0.4447"
   style="stop-color:#644C1D;stop-opacity:0.5553"
   id="stop24" />
			<stop
   offset="0.692"
   style="stop-color:#5D4C1E;stop-opacity:0.308"
   id="stop26" />
			<stop
   offset="1"
   style="stop-color:#5B4B1E;stop-opacity:0"
   id="stop28" />
		</radialGradient><radialGradient
     id="SVGID_2_"
     cx="322.8916"
     cy="404.14841"
     r="28.306801"
     gradientUnits="userSpaceOnUse">
			<stop
   offset="0"
   style="stop-color:#7F4F1B"
   id="stop35" />
			<stop
   offset="0.0779"
   style="stop-color:#7D511C;stop-opacity:0.9221"
   id="stop37" />
			<stop
   offset="0.3443"
   style="stop-color:#775420;stop-opacity:0.6557"
   id="stop39" />
			<stop
   offset="0.6363"
   style="stop-color:#745622;stop-opacity:0.3637"
   id="stop41" />
			<stop
   offset="1"
   style="stop-color:#735723;stop-opacity:0"
   id="stop43" />
		</radialGradient><linearGradient
     id="SVGID_3_"
     gradientUnits="userSpaceOnUse"
     x1="294.63959"
     y1="391.56451"
     x2="288.89111"
     y2="391.56451">
			<stop
   offset="0"
   style="stop-color:#7F4F1B"
   id="stop72" />
			<stop
   offset="0.0779"
   style="stop-color:#7D511C;stop-opacity:0.9221"
   id="stop74" />
			<stop
   offset="0.3443"
   style="stop-color:#775420;stop-opacity:0.6557"
   id="stop76" />
			<stop
   offset="0.6363"
   style="stop-color:#745622;stop-opacity:0.3637"
   id="stop78" />
			<stop
   offset="1"
   style="stop-color:#735723;stop-opacity:0"
   id="stop80" />
		</linearGradient><linearGradient
     id="SVGID_4_"
     gradientUnits="userSpaceOnUse"
     x1="301.1987"
     y1="389.4624"
     x2="295.6557"
     y2="389.4624">
			<stop
   offset="0"
   style="stop-color:#7F4F1B"
   id="stop85" />
			<stop
   offset="0.0779"
   style="stop-color:#7D511C;stop-opacity:0.9221"
   id="stop87" />
			<stop
   offset="0.3443"
   style="stop-color:#775420;stop-opacity:0.6557"
   id="stop89" />
			<stop
   offset="0.6363"
   style="stop-color:#745622;stop-opacity:0.3637"
   id="stop91" />
			<stop
   offset="1"
   style="stop-color:#735723;stop-opacity:0"
   id="stop93" />
		</linearGradient><linearGradient
     id="SVGID_5_"
     gradientUnits="userSpaceOnUse"
     x1="299.07669"
     y1="402.00391"
     x2="303.99551"
     y2="406.7128">
			<stop
   offset="0"
   style="stop-color:#0594B9"
   id="stop106" />
			<stop
   offset="0.0829"
   style="stop-color:#4F97B4;stop-opacity:0.9171"
   id="stop108" />
			<stop
   offset="0.1923"
   style="stop-color:#6F9AB0;stop-opacity:0.8077"
   id="stop110" />
			<stop
   offset="0.3069"
   style="stop-color:#829CAB;stop-opacity:0.6931"
   id="stop112" />
			<stop
   offset="0.4253"
   style="stop-color:#8C9CA6;stop-opacity:0.5747"
   id="stop114" />
			<stop
   offset="0.5488"
   style="stop-color:#929BA2;stop-opacity:0.4512"
   id="stop116" />
			<stop
   offset="0.6795"
   style="stop-color:#959A9F;stop-opacity:0.3205"
   id="stop118" />
			<stop
   offset="0.8223"
   style="stop-color:#979B9E;stop-opacity:0.1777"
   id="stop120" />
			<stop
   offset="1"
   style="stop-color:#999B9E;stop-opacity:0"
   id="stop122" />
		</linearGradient><linearGradient
     inkscape:collect="always"
     xlink:href="#SVGID_4_"
     id="linearGradient2854"
     gradientUnits="userSpaceOnUse"
     x1="301.1987"
     y1="389.4624"
     x2="295.6557"
     y2="389.4624"
     gradientTransform="matrix(19.120944,0,0,19.120944,-5524.1017,-7231.4166)" /><linearGradient
     inkscape:collect="always"
     xlink:href="#SVGID_3_"
     id="linearGradient2857"
     gradientUnits="userSpaceOnUse"
     x1="294.63959"
     y1="391.56451"
     x2="288.89111"
     y2="391.56451"
     gradientTransform="matrix(19.120944,0,0,19.120944,-5524.1017,-7231.4166)" /><radialGradient
     inkscape:collect="always"
     xlink:href="#SVGID_1_"
     id="radialGradient2872"
     gradientUnits="userSpaceOnUse"
     cx="322.8916"
     cy="404.14841"
     r="28.306801"
     gradientTransform="matrix(19.120944,0,0,19.120944,-5524.1017,-7231.4166)" /><radialGradient
     inkscape:collect="always"
     xlink:href="#SVGID_1_"
     id="radialGradient2876"
     gradientUnits="userSpaceOnUse"
     cx="315.11041"
     cy="401.8027"
     r="28.1866"
     gradientTransform="matrix(19.120944,0,0,19.120944,-5524.1017,-7231.4166)" /><linearGradient
     inkscape:collect="always"
     xlink:href="#SVGID_4_"
     id="linearGradient3652"
     x1="299.91394"
     y1="392.66293"
     x2="305.87738"
     y2="394.60452"
     gradientUnits="userSpaceOnUse" /><linearGradient
     inkscape:collect="always"
     xlink:href="#linearGradient3658"
     id="linearGradient3664"
     x1="299.76364"
     y1="392.40604"
     x2="301.82913"
     y2="396.42789"
     gradientUnits="userSpaceOnUse" /><linearGradient
     inkscape:collect="always"
     xlink:href="#linearGradient3658"
     id="linearGradient3668"
     gradientUnits="userSpaceOnUse"
     x1="299.76364"
     y1="392.40604"
     x2="301.82913"
     y2="396.42789" /></defs><sodipodi:namedview
   inkscape:window-height="1538"
   inkscape:window-width="2560"
   inkscape:pageshadow="2"
   inkscape:pageopacity="0.0"
   guidetolerance="10.0"
   gridtolerance="10.0"
   objecttolerance="10.0"
   borderopacity="1.0"
   bordercolor="#666666"
   pagecolor="#ffffff"
   id="base"
   showgrid="false"
   inkscape:zoom="18.666667"
   inkscape:cx="15.56686"
   inkscape:cy="20.676516"
   inkscape:window-x="0"
   inkscape:window-y="24"
   inkscape:current-layer="Layer_1" />
<path
   stroke-miterlimit="10"
   d="M 680.77855,485.94948 C 582.64986,268.08544 580.96723,158.42683 593.10903,86.436466 C 593.93123,84.887677 594.04596,82.746125 593.52969,81.292939 C 590.54682,71.942799 561.23441,68.940801 527.23738,74.963898 C 493.18296,80.987007 467.50354,93.377372 470.54377,102.68927 C 489.41614,163.1497 487.96295,235.33125 477.00665,304.95062 C 433.20056,178.46557 436.91003,92.478688 445.59094,37.41037 C 446.56611,35.383546 446.2793,30.698918 445.99249,30.584191 C 441.42257,20.31624 412.74116,16.492059 379.77665,23.413841 C 349.31698,29.819359 325.91295,43.318739 323.52284,53.835258 C 323.48459,53.873508 323.46547,54.236805 323.50371,54.38977 C 323.35074,55.422297 324.30679,58.921431 324.78481,59.648024 C 339.89035,115.42382 338.89607,182.50009 330.48285,250.83835 L 224.01744,218.00768 L 224.01744,149.76503 C 224.03656,149.5547 224.01744,149.34437 224.01744,149.13404 L 224.01744,146.51448 C 223.97919,146.76305 223.82622,146.97338 223.76887,147.22194 C 223.73062,147.04987 223.74975,146.87778 223.7115,146.72481 C 221.66556,139.13379 205.10682,134.60213 181.81752,139.47797 C 163.21284,143.41688 155.7748,148.92372 154.60842,154.87033 C 154.58929,154.71737 154.49368,154.58351 154.47457,154.44967 L 154.47457,155.65429 C 154.39808,156.32352 154.39808,157.01187 154.47457,157.70023 L 154.47457,228.67717 L 98.622284,251.23988 L 98.622284,189.97639 C 98.641414,189.76604 98.622284,189.55572 98.622284,189.34539 L 98.622284,186.74495 C 98.584044,186.99351 98.431074,187.20385 98.373724,187.45241 C 98.335474,187.26122 98.373724,187.08912 98.316354,186.93616 C 96.251298,179.34514 79.711676,174.79436 56.422366,179.68932 C 37.817687,183.60911 30.37964,189.13506 29.213263,195.08168 C 29.194142,194.92871 29.098537,194.79486 29.079415,194.66102 L 29.079415,195.84651 C 29.002932,196.51575 29.002932,197.24234 29.079415,197.93069 L 29.079415,279.36679 L -62.968809,316.28934 L -63.542438,317.99111 L -63.485075,689.66402 L 163.21284,770.14407 L 163.21284,770.64122 L 415.78139,637.48297 L 415.78139,637.61681 L 540.12489,567.88273 L 539.95279,543.52265 C 610.35612,536.40965 674.54513,512.79529 680.77855,485.94948 z"
   id="path11"
   style="fill:none;stroke:#412c0a;stroke-width:33;stroke-linecap:round;stroke-linejoin:round;stroke-miterlimit:10;stroke-dasharray:none;stroke-opacity:1" /><path
   d="M 446.73819,32.763982 C 433.75507,109.20952 426.83329,246.15372 558.44275,480.72946 C 532.89718,537.8246 364.00187,574.91923 269.77386,542.47098 C 295.30031,422.0664 366.0287,196.59222 323.54195,52.305583 C 369.872,3.6427826 446.73819,32.763982 446.73819,32.763982 z"
   id="path13"
   style="fill:#be6e29" /><path
   d="M 323.52284,55.785594 C 326.58219,66.933103 356.58295,70.10718 390.59911,62.975069 C 424.63438,55.785594 449.74019,40.966868 446.71908,29.876723 C 443.69796,18.729202 413.63984,15.57425 379.60456,22.706361 C 345.60752,29.876723 320.52084,44.695447 323.52284,55.785594 z"
   id="path15"
   style="fill:#8f5319" /><path
   d="M 446.73819,33.681791 C 433.20056,105.72949 428.95572,221.48769 531.3675,441.35943 C 521.36724,484.24772 360.96164,519.08608 267.99562,489.00883 C 306.0463,385.52628 361.15285,190.12936 325.85559,59.896605 C 371.612,14.752055 446.73819,33.681791 446.73819,33.681791 z"
   id="path30"
   style="fill:url(#radialGradient2876)" /><path
   d="M 593.96946,80.279527 C 580.98634,152.17428 580.73778,261.9285 680.87415,484.30508 C 670.72093,527.76699 508.13555,563.10248 413.88841,532.60458 C 452.47448,427.70708 513.22172,237.8361 470.81146,102.07741 C 517.17976,56.320981 593.96946,80.279527 593.96946,80.279527 z"
   id="path32"
   style="fill:#a76121" /><path
   d="M 593.85474,81.312053 C 580.89074,153.22593 580.52745,262.29179 680.66383,484.66837 C 670.51061,528.16852 506.93093,564.3071 412.68379,533.82832 C 451.25073,428.89258 513.27908,238.77303 470.84971,102.9952 C 517.23712,57.257904 593.85474,81.312053 593.85474,81.312053 z"
   id="path45"
   style="fill:url(#radialGradient2872);fill-opacity:1.0" /><path
   d="M 470.79235,102.07741 C 473.83257,111.46579 503.85245,114.14272 537.88773,108.11962 C 571.86565,102.07741 596.99057,89.591429 593.96946,80.260403 C 590.94835,70.891148 560.90935,68.214208 526.91232,74.218192 C 492.85791,80.279527 467.75211,92.746381 470.79235,102.07741 z"
   id="path47"
   style="fill:#79450f" /><g
   id="g49"
   transform="matrix(19.120944,0,0,19.120944,-5524.1017,-7231.4166)">
			<polygon
   points="310.59,398.787 303.531,396.741 310.518,394.04 317.076,396.083 310.59,398.787 "
   id="polygon51"
   style="fill:#e5dfb8" />
		</g><polygon
   points="297.356,398.146 285.498,394.708 299.344,389.112 310.49,392.55 297.356,398.146 "
   id="polygon53"
   style="fill:#e5dfb8"
   transform="matrix(19.120944,0,0,19.120944,-5524.1017,-7231.4166)" /><polygon
   points="297.443,418.383 285.587,414.173 285.584,394.735 297.441,398.172 297.443,418.383 "
   id="polygon55"
   style="fill:#cbc26b"
   transform="matrix(19.120944,0,0,19.120944,-5524.1017,-7231.4166)" /><polygon
   points="317.155,407.806 317.077,396.082 310.584,398.801 310.547,392.521 297.328,398.174 297.443,418.409 310.652,411.444 310.652,411.451 317.155,407.806 "
   id="polygon57"
   style="fill:#b6ad25"
   transform="matrix(19.120944,0,0,19.120944,-5524.1017,-7231.4166)" /><polygon
   transform="matrix(19.120944,0,0,19.120944,-5644.316,-7188.988)"
   style="fill:url(#linearGradient3664);fill-opacity:1"
   id="polygon3654"
   points="300.438,392.031 307.469,393.844 304.813,395 297.406,392.969 300.438,392.031 " /><path
   d="M 29.404472,197.91157 C 31.469534,205.52171 49.710914,211.258 74.625505,204.52742 C 93.612599,199.40301 100.51526,192.84452 98.431074,185.23438 C 96.36602,177.64338 79.807281,173.09259 56.537093,178.00667 C 33.266903,182.90163 27.320289,190.30144 29.404472,197.91157 z"
   id="path63"
   style="fill:#8f5319" /><path
   d="M 98.717894,306.70975 C 84.013889,324.3775 36.995488,335.27644 29.1559,314.66406 L 29.1559,192.97837 C 31.087115,213.59076 94.224477,210.56964 98.717894,185.04318 L 98.717894,306.70975 z"
   id="path65"
   style="fill:#de9927" /><path
   d="M 154.81874,157.70023 C 156.90292,165.31036 175.12519,171.06577 200.03978,164.3352 C 219.046,159.21079 225.92953,152.63318 223.86448,145.06128 C 221.79941,137.47027 205.22155,132.91949 181.95136,137.81444 C 158.68118,142.72852 152.73455,150.10922 154.81874,157.70023 z"
   id="path67"
   style="fill:#8f5319" /><polygon
   points="300.438,392.031 307.469,393.844 304.813,395 297.406,392.969 300.438,392.031 "
   id="polygon3666"
   style="fill:url(#linearGradient3668);fill-opacity:1"
   transform="matrix(19.120944,0,0,19.120944,-5521.4499,-7229.6487)" /><path
   d="M 224.15128,266.51752 C 209.42816,284.18528 162.40975,295.08421 154.57018,274.45271 L 154.57018,152.78614 C 156.52051,173.39853 219.63874,170.37741 224.15128,144.85095 L 224.15128,266.51752 z"
   id="path69"
   style="fill:#de9927" /><path
   d="M 98.411964,306.92008 C 83.727074,324.58783 36.689553,335.48678 28.849965,314.85527 L 28.849965,193.16958 C 30.800301,213.78195 93.880291,210.76085 98.411964,185.23438 L 98.411964,306.92008 z"
   id="path82"
   style="fill:url(#linearGradient2857)" /><path
   d="M 223.82622,266.70874 C 209.14134,284.37649 162.10382,295.27542 154.26423,274.66304 L 154.26423,152.99648 C 156.19545,173.60885 219.31369,170.56863 223.82622,145.06128 L 223.82622,266.70874 z"
   id="path95"
   style="fill:url(#linearGradient2854)" /><polygon
   points="304.745,414.554 304.745,407.247 306.449,406.364 306.449,413.639 304.745,414.554 "
   id="polygon97"
   style="fill:#545120"
   transform="matrix(19.120944,0,0,19.120944,-5524.1017,-7231.4166)" /><polygon
   points="303.075,415.445 303.075,408.083 304.778,407.231 304.778,414.531 303.075,415.445 "
   id="polygon99"
   style="fill:#545120"
   transform="matrix(19.120944,0,0,19.120944,-5524.1017,-7231.4166)" /><polygon
   points="299.48,407.372 299.48,399.932 301.184,399.158 301.184,406.459 299.48,407.372 "
   id="polygon101"
   style="fill:#75bcda"
   transform="matrix(19.120944,0,0,19.120944,-5524.1017,-7231.4166)" /><path
   d="M 202.33429,415.46967 L 202.33429,557.7295 L 234.91637,540.27208 L 234.91637,400.67007 L 202.33429,415.46967 z M 229.12273,536.79207 L 208.10882,548.05431 L 208.10882,419.21738 L 229.12273,409.69516 L 229.12273,536.79207 z"
   id="path103"
   style="fill:#34602e" /><polygon
   points="299.783,406.824 300.881,406.235 300.881,399.588 299.783,400.084 299.783,406.824 "
   id="polygon124"
   style="fill:url(#linearGradient2745);fill-opacity:1.0"
   transform="matrix(19.120944,0,0,19.120944,-5524.1017,-7231.4166)" /><polygon
   points="303.433,405.522 303.445,398.061 305.136,397.309 305.136,404.608 303.433,405.522 "
   id="polygon126"
   style="fill:#75bcda"
   transform="matrix(19.120944,0,0,19.120944,-5524.1017,-7231.4166)" /><polygon
   points="307.111,403.716 307.111,396.294 308.813,395.5 308.813,402.8 307.111,403.716 "
   id="polygon128"
   style="fill:#75bcda"
   transform="matrix(19.120944,0,0,19.120944,-5524.1017,-7231.4166)" /><polygon
   points="311.842,405.144 311.842,399.778 313.082,399.158 313.082,404.478 311.842,405.144 "
   id="polygon130"
   style="fill:#75bcda"
   transform="matrix(19.120944,0,0,19.120944,-5524.1017,-7231.4166)" /><polygon
   points="314.731,403.731 314.731,398.366 315.973,397.746 315.973,403.063 314.731,403.731 "
   id="polygon132"
   style="fill:#75bcda"
   transform="matrix(19.120944,0,0,19.120944,-5524.1017,-7231.4166)" /><path
   d="M 277.99586,380.17242 L 277.99586,522.45136 L 310.55883,504.97482 L 310.55883,365.39193 L 277.99586,380.17242 z M 304.78431,501.51392 L 283.80862,512.81441 L 283.80862,383.93925 L 304.78431,374.41701 L 304.78431,501.51392 z"
   id="path134"
   style="fill:#34602e" /><path
   d="M 347.9594,345.81208 L 347.9594,488.11014 L 380.50324,470.59536 L 380.50324,331.03159 L 347.9594,345.81208 z M 374.7096,467.17271 L 353.7148,478.43495 L 353.7148,349.54067 L 374.7096,340.03755 L 374.7096,467.17271 z"
   id="path136"
   style="fill:#34602e" /><path
   d="M 438.49707,411.7411 L 438.49707,515.43398 L 462.20704,502.71855 L 462.20704,400.99513 L 438.49707,411.7411 z M 457.96218,500.17547 L 442.68456,508.39747 L 442.68456,414.51363 L 457.96218,407.55361 L 457.96218,500.17547 z"
   id="path138"
   style="fill:#34602e" /><path
   d="M 493.66099,384.9144 L 493.66099,488.6073 L 517.39008,475.8345 L 517.39008,374.16844 L 493.66099,384.9144 z M 513.14523,473.32966 L 497.86759,481.55166 L 497.86759,387.64871 L 513.14523,380.7078 L 513.14523,473.32966 z"
   id="path140"
   style="fill:#34602e" /><polygon
   points="303.741,405.013 304.839,404.422 304.839,397.774 303.741,398.272 303.741,405.013 "
   id="polygon161"
   style="fill:url(#linearGradient2747);fill-opacity:1.0"
   transform="matrix(19.120944,0,0,19.120944,-5524.1017,-7231.4166)" /><polygon
   points="307.398,403.215 308.496,402.626 308.496,395.977 307.398,396.474 307.398,403.215 "
   id="polygon182"
   style="fill:url(#linearGradient2749);fill-opacity:1.0"
   transform="matrix(19.120944,0,0,19.120944,-5524.1017,-7231.4166)" /><polygon
   points="312.048,404.792 312.85,404.36 312.85,399.509 312.048,399.874 312.048,404.792 "
   id="polygon203"
   style="fill:url(#linearGradient2751);fill-opacity:1.0"
   transform="matrix(19.120944,0,0,19.120944,-5524.1017,-7231.4166)" /><polygon
   points="314.934,403.373 315.735,402.941 315.735,398.09 314.934,398.453 314.934,403.373 "
   id="polygon224"
   style="fill:url(#linearGradient2753);fill-opacity:1.0"
   transform="matrix(19.120944,0,0,19.120944,-5524.1017,-7231.4166)" />

</svg>