<?xml version="1.0" encoding="UTF-8" standalone="no"?>
<!-- Generator: Adobe Illustrator 15.0.0, SVG Export Plug-In . SVG Version: 6.00 Build 0)  -->
<svg
   xmlns:dc="http://purl.org/dc/elements/1.1/"
   xmlns:cc="http://creativecommons.org/ns#"
   xmlns:rdf="http://www.w3.org/1999/02/22-rdf-syntax-ns#"
   xmlns:svg="http://www.w3.org/2000/svg"
   xmlns="http://www.w3.org/2000/svg"
   xmlns:sodipodi="http://sodipodi.sourceforge.net/DTD/sodipodi-0.dtd"
   xmlns:inkscape="http://www.inkscape.org/namespaces/inkscape"
   version="1.0"
   id="Layer_1"
   x="0px"
   y="0px"
   width="48"
   height="48"
   viewBox="0 0 612 792"
   enable-background="new 0 0 612 792"
   xml:space="preserve"
   sodipodi:version="0.32"
   inkscape:version="0.46"
   sodipodi:docname="Motion_Capture.svg"
   inkscape:output_extension="org.inkscape.output.svg.inkscape"><metadata
   id="metadata24241"><rdf:RDF><cc:Work
       rdf:about=""><dc:format>image/svg+xml</dc:format><dc:type
         rdf:resource="http://purl.org/dc/dcmitype/StillImage" /></cc:Work></rdf:RDF></metadata><defs
   id="defs24239"><inkscape:perspective
   sodipodi:type="inkscape:persp3d"
   inkscape:vp_x="0 : 396 : 1"
   inkscape:vp_y="0 : 1000 : 0"
   inkscape:vp_z="612 : 396 : 1"
   inkscape:persp3d-origin="306 : 264 : 1"
   id="perspective24243" />
	
	

		
		
		
		
		
		
		
		
		
		
		
		
		
		
		
		
		
		
		
		
		
	</defs><sodipodi:namedview
   inkscape:window-height="1538"
   inkscape:window-width="2560"
   inkscape:pageshadow="2"
   inkscape:pageopacity="0.0"
   guidetolerance="10.0"
   gridtolerance="10.0"
   objecttolerance="10.0"
   borderopacity="1.0"
   bordercolor="#666666"
   pagecolor="#ffffff"
   id="base"
   showgrid="false"
   inkscape:zoom="13.199327"
   inkscape:cx="15.303351"
   inkscape:cy="20.980868"
   inkscape:window-x="0"
   inkscape:window-y="24"
   inkscape:current-layer="Layer_1" />
<path
   stroke-miterlimit="10"
   d="M -40.703044,93.624632 C -22.977018,91.529277 16.209495,108.74836 18.304851,117.06219 C 20.400205,125.40982 121.77144,258.75211 137.26693,273.60547 C 161.24522,296.55298 269.29117,345.48966 269.29117,345.48966 L 271.85968,383.49331 L 241.73051,454.29602 C 241.73051,454.29602 101.02067,539.25928 85.744858,550.10782 C 74.203509,558.26955 67.934342,725.28961 67.934342,725.28961 C 66.007967,717.49962 11.427355,711.6529 -15.947442,722.50144 C -37.272746,730.91666 -53.528644,760.08263 -53.528644,760.08263 C -53.528644,760.08263 -26.931155,781.45863 -12.770613,777.92695 C -0.29987248,774.76702 78.12385,760.84304 86.454575,754.96254 L 129.76421,587.43554 C 129.76421,587.43554 209.69185,544.51456 228.44866,548.68838 C 232.43659,549.60087 269.25738,545.15669 271.06547,548.78977 C 274.05642,554.75477 273.3805,561.56467 271.72449,567.42828 C 262.61646,566.97203 255.09684,568.27319 251.63274,569.99678 C 242.42332,574.57615 214.06845,632.99262 216.80592,649.60337 C 219.59409,666.21412 222.1288,671.14835 218.58021,678.14412 C 213.81497,687.42114 214.87955,704.89369 234.22778,725.18822 C 253.30565,745.12789 303.44208,748.23713 326.52478,707.64807 C 349.59058,667.02523 345.18019,629.68059 318.32924,590.88274 C 316.06491,587.63832 313.51331,584.86705 310.77583,582.39994 C 312.80359,571.92316 317.53503,550.44577 322.28337,550.44577 C 328.53564,550.44577 366.65759,539.46205 377.08366,542.28403 C 385.76925,544.59905 397.73305,541.37154 406.6383,540.49283 C 425.74996,538.56647 490.85804,587.89179 512.69029,584.85014 C 521.93352,583.5828 497.16101,727.67223 497.16101,727.67223 L 498.80012,726.81043 C 497.73555,727.70603 497.00892,728.36505 497.00892,728.36505 C 497.00892,728.36505 502.06143,748.86235 516.66133,749.57207 C 531.26122,750.24799 556.64205,765.10136 569.38316,773.38139 C 578.98123,779.63365 619.70547,767.65296 619.70547,767.65296 C 619.70547,767.65296 609.1949,756.68614 600.18826,739.28117 C 591.87443,723.32944 546.60462,711.88948 527.23949,711.85568 L 527.69573,711.60221 C 527.69573,711.60221 570.46463,550.73304 552.7893,546.06918 C 507.82366,534.24057 375.44455,479.20371 375.44455,479.20371 L 388.97987,413.87595 C 388.97987,413.87595 400.90987,387.76851 406.95937,366.64599 C 412.13016,348.64959 418.34864,334.40456 423.09698,306.89458 C 429.85618,267.74186 473.92623,241.65131 500.05057,215.08762 C 538.56116,175.8842 571.563,85.902236 586.75433,68.514171 C 597.2142,56.533473 658.09777,38.638467 651.84551,33.416978 C 645.59324,28.195489 644.54557,21.94322 636.19794,17.803206 C 627.86721,13.595598 526.19182,33.974613 529.68971,47.357846 C 532.3427,57.445966 538.2401,70.356055 538.2401,70.356055 L 517.35415,86.713341 C 517.35415,86.713341 469.66793,152.17628 430.09276,180.42977 C 398.51035,203.00553 334.8724,274.50107 334.8724,274.50107 C 298.1868,257.45096 191.94893,212.23185 138.93984,175.49555 C 114.21803,158.34406 55.142539,119.32653 59.316351,100.53592 C 63.490162,81.812914 50.95183,59.896179 38.481089,61.974636 C 25.976552,64.053093 5.1412908,61.366307 -8.4278213,55.114039 C -21.980035,48.878669 -34.112815,44.789347 -45.552777,45.837025 C -57.026533,46.867804 -70.578748,49.993938 -70.578748,49.993938 C -70.578748,49.993938 -58.42907,95.68619 -40.703044,93.624632 z"
   id="path24192"
   style="stroke:#000000;stroke-width:5.06940699;stroke-linecap:round;stroke-linejoin:round;stroke-miterlimit:10" /><g
   id="g24194"
   transform="matrix(16.898023,0,0,16.898023,-4938.3752,-7453.8602)">
			<path
   d="M 329.406,441.669 C 329.842,441.669 329.983,441.811 330.059,441.849 C 330.43,442.034 330.607,442.275 330.765,442.491 C 330.856,442.615 331.339,442.949 331.339,443.1 C 331.339,443.685 327.743,445.069 327.021,445.598 C 326.517,445.967 325.505,447.092 325.223,447.773 C 324.777,448.85 322.923,453.126 321.585,454.464 C 320.218,455.831 317.665,457.612 317.57,458.897 C 317.36,461.741 316.854,461.6 316.441,462.996 C 316.086,464.189 315.73,465.525 315.688,465.714 L 314.998,469.206 C 316.59,469.793 321.794,471.924 324.324,472.802 C 324.556,472.883 324.846,473.032 325.055,473.086 C 325.157,473.114 325.299,473.184 325.405,473.366 C 326.048,474.472 324.46,480.863 323.923,482.925 C 325.121,483.105 327.584,483.744 328.081,484.699 C 328.265,485.053 329.482,486.31 329.407,486.575 C 329.128,487.194 327.283,487.459 326.414,487.459 C 326.227,487.459 326.086,487.446 326.015,487.423 C 325.74,487.332 324.188,486.405 323.528,486.084 C 323.373,486.01 322.836,485.827 322.679,485.819 C 321.924,485.784 321.491,484.889 321.399,484.688 C 321.308,484.487 321.343,484.026 321.343,484.026 C 321.769,481.525 322.167,477.43 322.265,476.227 C 321.568,476.148 317.613,473.616 316.952,473.616 C 316.949,473.616 316.946,473.616 316.943,473.616 C 316.81,473.621 316.669,473.623 316.523,473.623 C 315.553,473.623 314.394,473.527 314.299,473.527 C 313.822,473.527 311.612,474.009 311.442,474.029 C 311.361,474.17 311.205,474.585 311.027,475.455 C 311.16,475.59 311.276,475.728 311.379,475.877 C 313.094,478.356 313.259,480.738 311.882,483.162 C 311.139,484.473 309.859,485.224 308.372,485.224 C 307.37,485.224 306.431,484.868 305.86,484.271 C 304.604,482.954 304.527,481.76 304.872,481.083 C 304.973,480.888 304.951,480.743 304.848,480.229 C 304.815,480.056 304.777,479.856 304.735,479.613 C 304.55,478.5 306.256,474.892 306.986,474.528 C 307.217,474.413 307.612,474.342 308.049,474.335 C 308.072,474.156 308.067,474.001 308.026,473.865 C 307.969,473.859 307.88,473.855 307.745,473.855 C 307.411,473.855 305.745,473.916 305.695,473.927 C 302.892,474.581 301.24,475.773 300.234,476.139 L 297.746,486.128 C 297.567,486.256 297.143,486.431 296.615,486.544 C 296.002,486.675 292.613,487.184 292.205,487.184 C 292.087,487.212 291.955,487.225 291.815,487.225 C 290.857,487.225 289.461,486.631 289.002,486.204 C 288.604,485.834 290.623,483.49 292.282,483.226 C 292.831,483.138 293.513,483.1 294.15,483.1 C 294.855,483.1 295.505,483.147 295.862,483.226 C 296.051,481.642 296.182,474.092 296.954,473.556 C 298.099,472.761 305.276,468.244 306.227,467.762 L 307.986,463.747 L 307.857,461.881 C 306.583,461.459 301.199,458.847 300.027,457.569 C 298.271,455.657 297.649,454.727 293.566,449.333 C 293.206,448.858 292.948,448.258 292.925,448.165 C 292.887,448.159 291.279,447.079 289.885,447.004 L 289.762,447.01 C 288.517,447.01 287.775,444.387 287.727,444.137 C 287.727,444.137 287.688,443.961 287.743,443.851 C 287.798,443.742 287.994,443.728 287.994,443.728 C 288.028,443.72 288.829,443.538 289.522,443.474 C 289.789,443.451 290.056,443.426 290.33,443.426 C 290.893,443.426 291.725,444.054 292.233,444.206 C 292.987,444.433 294.784,444.314 295.286,444.622 C 295.964,445.036 296.265,446.411 296.103,447.14 C 295.879,448.146 305.175,454.13 308.227,455.343 C 308.914,455.616 311.559,456.722 311.928,456.818 C 314.056,454.423 315.477,452.793 317.485,451.539 C 319.116,450.117 322.462,446.018 323.548,445.099 C 323.12,444.293 323.23,444.166 323.235,443.97 C 323.276,442.172 326.486,442.392 328.165,441.904 C 328.736,441.726 329.13,441.669 329.406,441.669 M 329.406,441.169 L 329.406,441.169 C 329.029,441.169 328.575,441.252 328.02,441.423 C 327.604,441.543 327.056,441.62 326.477,441.702 C 324.829,441.934 322.777,442.223 322.737,443.955 C 322.707,444.225 322.707,444.473 322.936,444.98 C 322.381,445.517 321.553,446.445 320.62,447.492 C 319.412,448.846 318.045,450.379 317.187,451.134 C 315.207,452.379 313.763,454 311.778,456.235 C 311.221,456.025 310.039,455.541 309.34,455.255 C 308.942,455.092 308.603,454.953 308.413,454.877 C 305.423,453.689 297.206,448.3 296.611,447.153 C 296.763,446.267 296.442,444.74 295.548,444.194 C 295.19,443.975 294.608,443.926 293.692,443.872 C 293.184,443.842 292.659,443.81 292.378,443.726 C 292.229,443.681 291.996,443.558 291.771,443.438 C 291.294,443.186 290.802,442.924 290.331,442.924 C 290.044,442.924 289.772,442.948 289.508,442.971 C 288.82,443.034 288.074,443.196 287.913,443.232 C 287.765,443.251 287.446,443.325 287.296,443.626 C 287.175,443.87 287.216,444.14 287.239,444.244 C 287.242,444.262 287.999,447.509 289.762,447.509 L 289.881,447.504 C 290.375,447.535 291.227,447.737 292.521,448.508 C 292.64,448.786 292.872,449.244 293.167,449.634 C 293.976,450.703 294.649,451.597 295.222,452.358 C 297.535,455.429 298.233,456.356 299.658,457.907 C 300.815,459.169 305.666,461.568 307.379,462.238 L 307.477,463.659 L 305.837,467.403 C 304.382,468.211 297.729,472.408 296.668,473.144 C 296.069,473.561 295.821,475.216 295.517,480.847 C 295.479,481.552 295.445,482.19 295.411,482.655 C 295.053,482.619 294.615,482.599 294.15,482.599 C 293.429,482.599 292.737,482.646 292.203,482.731 C 290.647,482.979 288.793,484.8 288.498,485.77 C 288.364,486.209 288.543,486.459 288.661,486.569 C 289.224,487.092 290.757,487.724 291.815,487.724 C 291.978,487.724 292.131,487.709 292.269,487.681 C 292.937,487.645 296.185,487.147 296.72,487.033 C 297.266,486.916 297.771,486.724 298.037,486.535 C 298.134,486.466 298.203,486.364 298.232,486.249 L 300.658,476.507 C 300.932,476.389 301.237,476.233 301.576,476.058 C 302.559,475.554 303.904,474.864 305.776,474.422 C 305.858,474.416 306.095,474.406 306.38,474.396 C 305.388,475.47 304.062,478.604 304.243,479.695 C 304.281,479.914 304.315,480.096 304.346,480.256 L 304.359,480.322 C 304.396,480.508 304.45,480.78 304.438,480.836 C 304.005,481.688 304.064,483.112 305.5,484.617 C 306.163,485.311 307.237,485.725 308.374,485.725 C 310.046,485.725 311.484,484.881 312.318,483.411 C 313.799,480.804 313.627,478.247 311.792,475.595 C 311.724,475.496 311.651,475.402 311.571,475.309 C 311.665,474.89 311.744,474.628 311.799,474.474 C 311.883,474.457 311.982,474.438 312.091,474.415 C 312.665,474.3 314.01,474.029 314.302,474.029 C 314.323,474.03 314.396,474.035 314.5,474.042 C 314.912,474.069 315.77,474.125 316.525,474.125 C 316.677,474.125 316.825,474.123 316.963,474.118 C 317.242,474.159 318.603,474.915 319.502,475.414 C 320.596,476.021 321.283,476.394 321.733,476.582 C 321.596,478.122 321.231,481.708 320.85,483.944 C 320.831,484.167 320.814,484.609 320.943,484.896 C 321.135,485.311 321.682,486.275 322.656,486.32 C 322.756,486.334 323.19,486.478 323.312,486.537 C 323.605,486.68 324.096,486.955 324.573,487.223 C 325.349,487.659 325.683,487.842 325.859,487.9 C 325.937,487.926 326.082,487.962 326.415,487.962 C 326.444,487.962 329.349,487.93 329.864,486.783 C 329.874,486.761 329.883,486.738 329.888,486.715 C 330.002,486.315 329.697,485.922 328.994,485.072 C 328.815,484.856 328.572,484.561 328.525,484.471 C 327.934,483.337 325.614,482.747 324.542,482.531 C 325.516,478.724 326.469,474.205 325.838,473.118 C 325.69,472.861 325.465,472.683 325.191,472.607 C 325.096,472.583 324.962,472.525 324.833,472.469 C 324.715,472.419 324.597,472.369 324.49,472.332 C 322.907,471.782 320.255,470.733 318.123,469.891 C 317.104,469.488 316.197,469.129 315.571,468.89 L 316.179,465.813 C 316.218,465.641 316.575,464.301 316.921,463.141 C 317.043,462.728 317.172,462.467 317.309,462.192 C 317.61,461.584 317.92,460.954 318.07,458.937 C 318.124,458.208 319.497,457.006 320.6,456.041 C 321.09,455.612 321.553,455.207 321.939,454.821 C 323.444,453.315 325.46,448.51 325.685,447.967 C 325.928,447.38 326.874,446.328 327.317,446.004 C 327.539,445.841 328.196,445.528 328.832,445.226 C 331.015,444.186 331.84,443.734 331.84,443.103 C 331.84,442.776 331.576,442.549 331.298,442.309 C 331.24,442.258 331.187,442.214 331.155,442.181 C 330.997,441.963 330.761,441.643 330.282,441.405 C 330.103,441.286 329.855,441.169 329.406,441.169 L 329.406,441.169 z"
   id="path24196"
   style="fill:#4a4b4c" />
		</g><g
   id="g24198"
   transform="matrix(16.898023,0,0,16.898023,-4938.3752,-7453.8602)">
			<path
   d="M 329.467,442.072 C 329.558,442.072 329.639,442.091 329.709,442.137 C 330.168,442.444 330.457,442.779 330.827,443.088 C 331.197,443.397 327.037,444.473 326.227,445.681 C 325.775,446.355 325.171,446.882 324.847,447.688 C 324.378,448.852 322.589,452.749 320.873,454.547 C 319.352,456.143 317.218,456.967 317.038,459.315 C 316.887,461.274 316.441,461.599 316.1,462.58 C 315.676,463.809 315.27,465.603 315.27,465.603 L 314.469,469.469 C 314.469,469.469 322.303,472.726 324.964,473.426 C 326.01,473.7 323.479,483.222 323.479,483.222 L 323.451,483.236 C 324.597,483.239 327.277,483.916 327.769,484.86 C 328.302,485.888 328.916,486.497 328.916,486.497 C 328.916,486.497 327.491,487.022 326.525,487.022 C 326.331,487.022 326.155,487.001 326.013,486.95 C 325.374,486.721 323.689,485.509 322.825,485.469 C 321.96,485.427 321.708,484.458 321.672,484.172 C 321.672,484.172 323.102,476.018 322.507,475.794 C 320.62,475.08 317.626,473.186 316.722,473.186 C 316.318,473.186 315.501,473.238 314.904,473.238 C 314.72,473.238 314.556,473.233 314.432,473.22 C 314.395,473.216 314.354,473.214 314.307,473.214 C 313.559,473.214 311.671,473.686 311.324,473.686 C 311.043,473.686 310.762,474.957 310.643,475.576 C 310.805,475.722 310.956,475.887 311.089,476.078 C 312.679,478.375 312.94,480.585 311.574,482.988 C 310.807,484.337 309.536,484.871 308.368,484.871 C 307.456,484.871 306.607,484.545 306.113,484.027 C 304.967,482.826 304.905,481.792 305.185,481.243 C 305.396,480.829 305.245,480.536 305.081,479.553 C 304.918,478.571 306.596,475.115 307.142,474.842 C 307.32,474.754 307.677,474.685 308.12,474.685 C 308.189,474.685 308.26,474.686 308.332,474.69 C 308.43,474.343 308.471,473.94 308.293,473.588 C 308.258,473.518 308.015,473.494 307.691,473.494 C 307.062,473.494 306.128,473.582 305.816,473.582 C 305.799,473.582 305.784,473.582 305.771,473.581 C 305.76,473.581 305.748,473.58 305.736,473.58 C 304.541,473.58 299.93,475.875 299.93,475.875 L 297.367,485.788 C 296.873,486.137 292.64,486.584 291.902,486.767 C 291.822,486.787 291.735,486.796 291.64,486.796 C 290.739,486.796 289.263,485.975 289.263,485.975 C 289.263,485.975 290.607,484.154 291.902,483.751 C 292.393,483.599 293.084,483.533 293.773,483.533 C 294.99,483.533 296.198,483.738 296.271,484.033 C 296.271,484.033 296.601,474.244 297.28,473.85 C 300.125,472.209 306.556,467.995 306.556,467.995 L 308.342,463.806 L 308.186,461.556 C 308.186,461.556 301.794,458.661 300.373,457.303 C 299.457,456.424 293.458,448.532 293.335,448.039 C 293.218,447.573 291.146,446.642 290.032,446.642 C 289.966,446.642 289.903,446.645 289.844,446.652 C 289.821,446.655 289.798,446.656 289.775,446.656 C 288.763,446.656 288.074,444.07 288.074,444.07 C 288.074,444.07 288.876,443.884 289.555,443.824 C 289.627,443.817 289.699,443.814 289.771,443.814 C 290.385,443.814 291.034,444.043 291.751,444.373 C 292.374,444.661 293.255,444.821 293.965,444.821 C 294.17,444.821 294.361,444.807 294.527,444.78 C 294.561,444.774 294.594,444.771 294.627,444.771 C 295.317,444.771 295.84,445.981 295.76,447.062 C 295.614,449.04 306.069,455.05 308.41,455.886 C 309.449,456.257 310.972,456.949 312.067,457.357 C 312.067,457.357 315.352,453.293 317.778,451.83 C 319.032,450.867 322.083,447.328 322.588,446.643 C 323.173,445.849 323.883,445.096 323.883,445.096 C 323.883,445.096 323.767,444.578 323.675,443.967 C 323.564,443.228 325.271,442.627 327.908,442.472 C 328.489,442.438 329.068,442.072 329.467,442.072 M 329.467,441.572 L 329.467,441.572 C 329.191,441.572 328.917,441.671 328.627,441.774 C 328.374,441.865 328.113,441.959 327.881,441.972 C 326.535,442.051 324.166,442.323 323.416,443.247 C 323.17,443.55 323.153,443.846 323.183,444.04 C 323.237,444.402 323.299,444.73 323.343,444.946 C 323.089,445.225 322.611,445.771 322.188,446.344 C 321.716,446.984 318.705,450.474 317.498,451.414 C 315.378,452.704 312.711,455.802 311.913,456.759 C 311.481,456.59 310.999,456.389 310.528,456.193 C 309.848,455.909 309.143,455.615 308.582,455.414 C 305.714,454.391 296.155,448.548 296.262,447.098 C 296.329,446.2 296.043,445.24 295.552,444.71 C 295.284,444.422 294.966,444.27 294.63,444.27 C 294.57,444.27 294.509,444.276 294.447,444.286 C 294.311,444.308 294.15,444.32 293.968,444.32 C 293.289,444.32 292.483,444.159 291.964,443.918 C 291.314,443.619 290.546,443.314 289.774,443.314 C 289.686,443.314 289.599,443.318 289.512,443.326 C 288.807,443.389 287.998,443.575 287.964,443.583 C 287.832,443.613 287.718,443.696 287.648,443.812 C 287.578,443.928 287.559,444.068 287.594,444.199 C 287.779,444.892 288.483,447.156 289.778,447.156 C 289.82,447.156 289.862,447.154 289.905,447.149 C 289.946,447.144 289.989,447.142 290.035,447.142 C 290.973,447.142 292.629,447.905 292.873,448.217 C 293.301,449.251 299.373,457.033 300.03,457.663 C 301.341,458.917 306.453,461.309 307.71,461.887 L 307.837,463.72 L 306.159,467.66 C 305.243,468.258 299.615,471.929 297.034,473.417 C 296.789,473.56 296.15,473.931 295.803,483.232 C 295.218,483.078 294.457,483.033 293.778,483.033 C 292.976,483.033 292.259,483.118 291.759,483.273 C 290.323,483.719 288.924,485.597 288.865,485.677 C 288.78,485.792 288.748,485.94 288.779,486.08 C 288.81,486.22 288.899,486.341 289.025,486.41 C 289.188,486.501 290.643,487.295 291.645,487.295 C 291.783,487.295 291.913,487.279 292.029,487.251 C 292.26,487.193 292.966,487.094 293.714,486.988 C 296.201,486.637 297.299,486.45 297.661,486.194 C 297.758,486.126 297.827,486.026 297.856,485.911 L 300.362,476.22 C 302.129,475.352 304.986,474.078 305.741,474.078 L 305.821,474.08 C 305.957,474.08 306.204,474.064 306.494,474.046 C 306.872,474.023 307.343,473.992 307.697,473.992 C 307.787,473.992 307.857,473.994 307.91,473.997 C 307.92,474.056 307.924,474.119 307.92,474.186 C 307.512,474.205 307.157,474.277 306.927,474.391 C 306.147,474.781 304.399,478.447 304.595,479.632 C 304.636,479.875 304.675,480.077 304.709,480.25 C 304.81,480.762 304.822,480.865 304.747,481.014 C 304.377,481.736 304.449,482.997 305.758,484.369 C 306.355,484.995 307.334,485.368 308.375,485.368 C 309.918,485.368 311.244,484.59 312.016,483.232 C 313.424,480.753 313.257,478.319 311.507,475.791 C 311.412,475.655 311.308,475.526 311.194,475.405 C 311.339,474.711 311.466,474.331 311.544,474.166 C 311.737,474.141 312.019,474.086 312.431,474.005 C 313.059,473.881 313.918,473.712 314.315,473.712 C 314.342,473.712 314.367,473.713 314.388,473.715 C 314.526,473.73 314.707,473.736 314.911,473.736 C 315.245,473.736 315.646,473.72 316.009,473.706 C 316.293,473.695 316.552,473.685 316.73,473.685 C 317.126,473.685 318.448,474.367 319.509,474.915 C 320.417,475.384 321.355,475.868 322.15,476.187 C 322.264,477.051 321.768,480.774 321.188,484.084 C 321.179,484.133 321.178,484.183 321.184,484.232 C 321.257,484.808 321.69,485.912 322.809,485.965 C 323.247,485.986 324.173,486.515 324.786,486.864 C 325.215,487.11 325.586,487.322 325.852,487.418 C 326.042,487.486 326.265,487.52 326.533,487.52 C 327.576,487.52 329.035,486.987 329.096,486.963 C 329.256,486.904 329.375,486.768 329.411,486.601 C 329.447,486.434 329.396,486.259 329.274,486.139 C 329.269,486.134 328.706,485.566 328.219,484.627 C 327.673,483.58 325.473,482.956 324.116,482.783 C 324.862,479.913 326.177,474.387 325.537,473.287 C 325.405,473.061 325.224,472.974 325.097,472.94 C 322.832,472.344 316.649,469.821 315.048,469.163 L 315.765,465.702 C 315.767,465.693 316.168,463.928 316.578,462.74 C 316.665,462.49 316.76,462.286 316.86,462.068 C 317.138,461.47 317.425,460.852 317.541,459.35 C 317.652,457.898 318.637,457.103 319.777,456.182 C 320.268,455.786 320.776,455.375 321.24,454.889 C 323.005,453.038 324.819,449.104 325.315,447.871 C 325.499,447.416 325.795,447.05 326.11,446.662 C 326.29,446.439 326.476,446.21 326.646,445.956 C 327.031,445.382 328.683,444.703 329.67,444.297 C 330.876,443.801 331.282,443.634 331.347,443.212 C 331.377,443.02 331.303,442.828 331.151,442.701 C 331.029,442.598 330.916,442.493 330.801,442.386 C 330.565,442.167 330.322,441.94 329.989,441.718 C 329.837,441.622 329.662,441.572 329.467,441.572 L 329.467,441.572 z"
   id="path24200"
   style="fill:#e0e1e2" />
		</g><circle
   cx="291.819"
   cy="485.39301"
   r="0.99699998"
   id="circle24202"
   sodipodi:cx="291.819"
   sodipodi:cy="485.39301"
   sodipodi:rx="0.99699998"
   sodipodi:ry="0.99699998"
   style="fill:#e1f3fa"
   transform="matrix(16.898023,0,0,16.898023,-4938.3752,-7453.8602)" /><circle
   cx="295.28201"
   cy="484.90701"
   r="0.759"
   id="circle24204"
   sodipodi:cx="295.28201"
   sodipodi:cy="484.90701"
   sodipodi:rx="0.759"
   sodipodi:ry="0.759"
   style="fill:#e1f3fa"
   transform="matrix(16.898023,0,0,16.898023,-4938.3752,-7453.8602)" /><circle
   cx="326.64499"
   cy="485.53201"
   r="0.95899999"
   id="circle24206"
   sodipodi:cx="326.64499"
   sodipodi:cy="485.53201"
   sodipodi:rx="0.95899999"
   sodipodi:ry="0.95899999"
   style="fill:#e1f3fa"
   transform="matrix(16.898023,0,0,16.898023,-4938.3752,-7453.8602)" /><circle
   cx="323.96899"
   cy="484.40601"
   r="0.83099997"
   id="circle24208"
   sodipodi:cx="323.96899"
   sodipodi:cy="484.40601"
   sodipodi:rx="0.83099997"
   sodipodi:ry="0.83099997"
   style="fill:#e1f3fa"
   transform="matrix(16.898023,0,0,16.898023,-4938.3752,-7453.8602)" /><circle
   cx="309.41299"
   cy="483.20801"
   r="1.099"
   id="circle24210"
   sodipodi:cx="309.41299"
   sodipodi:cy="483.20801"
   sodipodi:rx="1.099"
   sodipodi:ry="1.099"
   style="fill:#e1f3fa"
   transform="matrix(16.898023,0,0,16.898023,-4938.3752,-7453.8602)" /><circle
   cx="306.716"
   cy="479.60101"
   r="1.098"
   id="circle24212"
   sodipodi:cx="306.716"
   sodipodi:cy="479.60101"
   sodipodi:rx="1.098"
   sodipodi:ry="1.098"
   style="fill:#e1f3fa"
   transform="matrix(16.898023,0,0,16.898023,-4938.3752,-7453.8602)" /><circle
   cx="306.79999"
   cy="472.198"
   r="1.098"
   id="circle24214"
   sodipodi:cx="306.79999"
   sodipodi:cy="472.198"
   sodipodi:rx="1.098"
   sodipodi:ry="1.098"
   style="fill:#e1f3fa"
   transform="matrix(22.590481,0,0,22.590481,-6686.0713,-10149.328)" /><circle
   cx="313.90799"
   cy="471.84299"
   r="1.098"
   id="circle24216"
   sodipodi:cx="313.90799"
   sodipodi:cy="471.84299"
   sodipodi:rx="1.098"
   sodipodi:ry="1.098"
   style="fill:#e1f3fa"
   transform="matrix(24.867464,0,0,24.867464,-7455.0472,-11219.185)" /><circle
   cx="323.80099"
   cy="474.53601"
   r="1.098"
   id="circle24218"
   sodipodi:cx="323.80099"
   sodipodi:cy="474.53601"
   sodipodi:rx="1.098"
   sodipodi:ry="1.098"
   style="fill:#e1f3fa"
   transform="matrix(22.590481,0,0,22.590481,-6785.3489,-10155.136)" /><circle
   cx="314.43399"
   cy="462.74301"
   r="1.098"
   id="circle24220"
   sodipodi:cx="314.43399"
   sodipodi:cy="462.74301"
   sodipodi:rx="1.098"
   sodipodi:ry="1.098"
   style="fill:#e1f3fa"
   transform="matrix(27.144447,0,0,27.144447,-8162.6993,-12227.823)" /><circle
   cx="309.85199"
   cy="462.853"
   r="1.098"
   id="circle24222"
   sodipodi:cx="309.85199"
   sodipodi:cy="462.853"
   sodipodi:rx="1.098"
   sodipodi:ry="1.098"
   style="fill:#e1f3fa"
   transform="matrix(24.867464,0,0,24.867464,-7402.722,-11142.54)" /><circle
   cx="301.72198"
   cy="456.30399"
   r="1.098"
   id="circle24224"
   sodipodi:cx="301.72198"
   sodipodi:cy="456.30399"
   sodipodi:rx="1.098"
   sodipodi:ry="1.098"
   style="fill:#e1f3fa"
   transform="matrix(26.005955,0,0,26.005955,-7688.9387,-11632.348)" /><circle
   cx="319.78699"
   cy="453.543"
   r="1.098"
   id="circle24226"
   sodipodi:cx="319.78699"
   sodipodi:cy="453.543"
   sodipodi:rx="1.098"
   sodipodi:ry="1.098"
   style="fill:#e1f3fa"
   transform="matrix(22.590481,0,0,22.590481,-6754.9989,-10049.385)" /><circle
   cx="329.155"
   cy="443.005"
   r="0.68000001"
   id="circle24228"
   sodipodi:cx="329.155"
   sodipodi:cy="443.005"
   sodipodi:rx="0.68000001"
   sodipodi:ry="0.68000001"
   style="fill:#e1f3fa"
   transform="matrix(16.898023,0,0,16.898023,-4938.3752,-7453.8602)" /><circle
   cx="293.98499"
   cy="446.237"
   r="1.098"
   id="circle24230"
   sodipodi:cx="293.98499"
   sodipodi:cy="446.237"
   sodipodi:rx="1.098"
   sodipodi:ry="1.098"
   style="fill:#e1f3fa"
   transform="matrix(16.898023,0,0,16.898023,-4938.3752,-7453.8602)" /><circle
   cx="298.51999"
   cy="474.875"
   r="1.098"
   id="circle24232"
   sodipodi:cx="298.51999"
   sodipodi:cy="474.875"
   sodipodi:rx="1.098"
   sodipodi:ry="1.098"
   style="fill:#e1f3fa"
   transform="matrix(23.728972,0,0,23.728972,-6973.7999,-10698.957)" /><circle
   cx="289.978"
   cy="445.14099"
   r="0.82999998"
   id="circle24234"
   sodipodi:cx="289.978"
   sodipodi:cy="445.14099"
   sodipodi:rx="0.82999998"
   sodipodi:ry="0.82999998"
   style="fill:#e1f3fa"
   transform="matrix(16.898023,0,0,16.898023,-4938.3752,-7453.8602)" /><circle
   cx="325.056"
   cy="444.09399"
   r="0.83099997"
   id="circle24236"
   sodipodi:cx="325.056"
   sodipodi:cy="444.09399"
   sodipodi:rx="0.83099997"
   sodipodi:ry="0.83099997"
   style="fill:#e1f3fa"
   transform="matrix(16.898023,0,0,16.898023,-4938.3752,-7453.8602)" />

</svg>