<?xml version="1.0" encoding="UTF-8" standalone="no"?>
<!-- Created with Inkscape (http://www.inkscape.org/) -->

<svg
   xmlns:dc="http://purl.org/dc/elements/1.1/"
   xmlns:cc="http://creativecommons.org/ns#"
   xmlns:rdf="http://www.w3.org/1999/02/22-rdf-syntax-ns#"
   xmlns:svg="http://www.w3.org/2000/svg"
   xmlns="http://www.w3.org/2000/svg"
   xmlns:sodipodi="http://sodipodi.sourceforge.net/DTD/sodipodi-0.dtd"
   xmlns:inkscape="http://www.inkscape.org/namespaces/inkscape"
   width="16px"
   height="16px"
   id="svg2160"
   sodipodi:version="0.32"
   inkscape:version="0.48.2 r9819"
   sodipodi:docname="list_delete.svg"
   inkscape:output_extension="org.inkscape.output.svg.inkscape"
   version="1.1">
  <defs
     id="defs2162">
    <linearGradient
       id="linearGradient3787">
      <stop
         style="stop-color:#000000;stop-opacity:1;"
         offset="0"
         id="stop3789" />
      <stop
         id="stop3795"
         offset="0.13306801"
         style="stop-color:#888a85;stop-opacity:1" />
      <stop
         style="stop-color:#000000;stop-opacity:0.25098041;"
         offset="1"
         id="stop3791" />
    </linearGradient>
  </defs>
  <sodipodi:namedview
     id="base"
     pagecolor="#ffffff"
     bordercolor="#666666"
     borderopacity="1.0"
     inkscape:pageopacity="0.0"
     inkscape:pageshadow="2"
     inkscape:zoom="64"
     inkscape:cx="5.2286231"
     inkscape:cy="7.2533285"
     inkscape:current-layer="layer1"
     showgrid="true"
     inkscape:grid-bbox="false"
     inkscape:document-units="px"
     inkscape:window-width="2560"
     inkscape:window-height="1468"
     inkscape:window-x="0"
     inkscape:window-y="0"
     inkscape:window-maximized="1" />
  <metadata
     id="metadata2165">
    <rdf:RDF>
      <cc:Work
         rdf:about="">
        <dc:format>image/svg+xml</dc:format>
        <dc:type
           rdf:resource="http://purl.org/dc/dcmitype/StillImage" />
      </cc:Work>
    </rdf:RDF>
  </metadata>
  <g
     id="layer1"
     inkscape:label="Layer 1"
     inkscape:groupmode="layer">
    <rect
       ry="1.53125"
       y="3"
       x="3"
       height="10"
       width="10"
       id="rect3801"
       style="fill:#323232;fill-opacity:0.25098041;stroke:none" />
    <path
       style="fill:#323232;fill-opacity:0.25098041;stroke:none"
       d="M 4.53125 3 C 3.6829375 3 3 3.6829375 3 4.53125 L 3 5.9375 C 3 5.0891875 3.6829375 4.375 4.53125 4.375 L 11.46875 4.375 C 12.317063 4.375 13 5.0891875 13 5.9375 L 13 4.53125 C 13 3.6829375 12.317063 3 11.46875 3 L 4.53125 3 z "
       id="rect3783" />
    <path
       id="path3806"
       d="M 4.53125,3 C 3.6829375,3 3,3.6829375 3,4.53125 L 3,5.25 C 3,4.4016875 3.6829375,3.6875 4.53125,3.6875 l 6.9375,0 C 12.317063,3.6875 13,4.4016875 13,5.25 L 13,4.53125 C 13,3.6829375 12.317063,3 11.46875,3 z"
       style="fill:#323232;fill-opacity:0.25098039;stroke:none"
       inkscape:connector-curvature="0"
       sodipodi:nodetypes="sscsscsss" />
    <rect
       style="fill:#ffffff;fill-opacity:1;stroke:none"
       id="rect3810"
       width="1"
       height="6.734375"
       x="11.073349"
       y="-3.2622263"
       rx="0.5"
       ry="0.5"
       transform="matrix(0.70710678,0.70710678,-0.70710678,0.70710678,0,0)" />
    <path
       id="path3837"
       d="m 6.0265551,5.7609029 c -0.1350427,0 -0.2927456,0.061616 -0.3962223,0.1650926 -0.2069534,0.2069534 -0.2069534,0.5524727 0,0.7594261 L 7.4133332,8.4354035 5.6303328,10.218404 c -0.2069534,0.206954 -0.2069534,0.519454 0,0.726407 0.2069533,0.206954 0.5524727,0.206954 0.7594261,0 L 8.1727593,9.1948296 9.9227411,10.944811 c 0.2069529,0.206954 0.5524719,0.206954 0.7594259,0 0.206954,-0.206953 0.206954,-0.519453 0,-0.726407 L 8.8991668,8.4354035 10.682167,6.6854216 c 0.206954,-0.2069534 0.206954,-0.5524727 0,-0.7594261 -0.206954,-0.2069533 -0.552473,-0.2069533 -0.7594259,0 L 8.1727593,7.7089959 6.3897589,5.9259955 C 6.2862822,5.8225188 6.1615978,5.7609029 6.0265551,5.7609029 z"
       style="fill:#000000;fill-opacity:0.53333327;stroke:none"
       inkscape:connector-curvature="0" />
    <path
       style="fill:#ffffff;fill-opacity:1;stroke:none"
       d="m 6.0265551,5.265625 c -0.1350427,0 -0.2927456,0.061616 -0.3962223,0.1650926 -0.2069534,0.2069534 -0.2069534,0.5524728 0,0.7594261 L 7.4133332,7.9401256 5.6303328,9.723126 c -0.2069534,0.206954 -0.2069534,0.519454 0,0.726408 0.2069533,0.206953 0.5524727,0.206953 0.7594261,0 L 8.1727593,8.6995517 9.9227411,10.449534 c 0.2069529,0.206953 0.5524719,0.206953 0.7594259,0 0.206954,-0.206954 0.206954,-0.519454 0,-0.726408 L 8.8991668,7.9401256 10.682167,6.1901437 c 0.206954,-0.2069533 0.206954,-0.5524727 0,-0.7594261 -0.206954,-0.2069533 -0.552473,-0.2069533 -0.7594259,0 L 8.1727593,7.213718 6.3897589,5.4307176 C 6.2862822,5.3272409 6.1615978,5.265625 6.0265551,5.265625 z"
       id="rect3812"
       inkscape:connector-curvature="0" />
  </g>
</svg>
