<?xml version="1.0" encoding="UTF-8" standalone="no"?>
<!-- Created with Inkscape (http://www.inkscape.org/) -->

<svg
   xmlns:i="http://ns.adobe.com/AdobeIllustrator/10.0/"
   xmlns:a="http://ns.adobe.com/AdobeSVGViewerExtensions/3.0/"
   xmlns:dc="http://purl.org/dc/elements/1.1/"
   xmlns:cc="http://creativecommons.org/ns#"
   xmlns:rdf="http://www.w3.org/1999/02/22-rdf-syntax-ns#"
   xmlns:svg="http://www.w3.org/2000/svg"
   xmlns="http://www.w3.org/2000/svg"
   xmlns:xlink="http://www.w3.org/1999/xlink"
   xmlns:sodipodi="http://sodipodi.sourceforge.net/DTD/sodipodi-0.dtd"
   xmlns:inkscape="http://www.inkscape.org/namespaces/inkscape"
   width="48px"
   height="48px"
   id="svg3050"
   version="1.1"
   inkscape:version="0.48.5 r10040"
   sodipodi:docname="crowdsource.svg">
  <defs
     id="defs3052">
    <linearGradient
       inkscape:collect="always"
       id="linearGradient26779">
      <stop
         style="stop-color:#000000;stop-opacity:1;"
         offset="0"
         id="stop26781" />
      <stop
         style="stop-color:#000000;stop-opacity:0;"
         offset="1"
         id="stop26783" />
    </linearGradient>
    <linearGradient
       id="linearGradient26757">
      <stop
         style="stop-color:#444542;stop-opacity:1;"
         offset="0"
         id="stop26759" />
      <stop
         style="stop-color:#7f817b;stop-opacity:1;"
         offset="1"
         id="stop26761" />
    </linearGradient>
    <linearGradient
       id="linearGradient26716">
      <stop
         style="stop-color:#a40000;stop-opacity:1;"
         offset="0"
         id="stop26718" />
      <stop
         style="stop-color:#690000;stop-opacity:1;"
         offset="1"
         id="stop26720" />
    </linearGradient>
    <linearGradient
       id="linearGradient26698">
      <stop
         style="stop-color:#000000;stop-opacity:1;"
         offset="0"
         id="stop26700" />
      <stop
         style="stop-color:#b7b7b7;stop-opacity:1;"
         offset="1"
         id="stop26702" />
    </linearGradient>
    <linearGradient
       id="linearGradient26627">
      <stop
         style="stop-color:#747671;stop-opacity:1;"
         offset="0"
         id="stop26629" />
      <stop
         style="stop-color:#1f1f1e;stop-opacity:1;"
         offset="1"
         id="stop26631" />
    </linearGradient>
    <linearGradient
       id="linearGradient26596">
      <stop
         style="stop-color:#787b75;stop-opacity:1;"
         offset="0"
         id="stop26598" />
      <stop
         style="stop-color:#3b3c3a;stop-opacity:1;"
         offset="1"
         id="stop26600" />
    </linearGradient>
    <linearGradient
       id="linearGradient26498">
      <stop
         style="stop-color:#917c70;stop-opacity:1;"
         offset="0"
         id="stop26500" />
      <stop
         style="stop-color:#5f4317;stop-opacity:1;"
         offset="1"
         id="stop26502" />
    </linearGradient>
    <linearGradient
       id="linearGradient26468">
      <stop
         style="stop-color:#000000;stop-opacity:0.67521369;"
         offset="0"
         id="stop26470" />
      <stop
         style="stop-color:#000000;stop-opacity:0;"
         offset="1"
         id="stop26472" />
    </linearGradient>
    <radialGradient
       inkscape:collect="always"
       xlink:href="#linearGradient26498"
       id="radialGradient28288"
       gradientUnits="userSpaceOnUse"
       gradientTransform="matrix(1.1548872,0.00280877,-0.00667575,1.3898201,-3.4675333,-2.4369712)"
       cx="22.951818"
       cy="6.0514746"
       fx="22.951818"
       fy="6.0514746"
       r="6.1176181" />
    <radialGradient
       inkscape:collect="always"
       xlink:href="#linearGradient26498"
       id="radialGradient28290"
       gradientUnits="userSpaceOnUse"
       gradientTransform="matrix(1.1548872,0.00280877,-0.00667575,1.3898201,-3.4675333,-2.4369712)"
       cx="22.951818"
       cy="6.0514746"
       fx="22.951818"
       fy="6.0514746"
       r="6.1176181" />
    <linearGradient
       inkscape:collect="always"
       xlink:href="#linearGradient26627"
       id="linearGradient28292"
       gradientUnits="userSpaceOnUse"
       gradientTransform="matrix(1.3438221,0,0,1.3397584,-14.508794,-0.85211168)"
       x1="19.936892"
       y1="12.734727"
       x2="20.432528"
       y2="29.056328" />
    <linearGradient
       inkscape:collect="always"
       xlink:href="#linearGradient26698"
       id="linearGradient28294"
       gradientUnits="userSpaceOnUse"
       gradientTransform="matrix(1.4127971,0,0,1.4076164,-16.632786,-0.18849064)"
       x1="9.3219767"
       y1="26.351168"
       x2="14.512268"
       y2="6.5521774" />
    <linearGradient
       inkscape:collect="always"
       xlink:href="#linearGradient26596"
       id="linearGradient28296"
       gradientUnits="userSpaceOnUse"
       gradientTransform="matrix(1.4679111,0,0,1.4609067,-15.918422,-4.388858)"
       x1="28.571428"
       y1="17.178572"
       x2="31.714285"
       y2="31.107143" />
    <linearGradient
       inkscape:collect="always"
       xlink:href="#linearGradient26698"
       id="linearGradient28298"
       gradientUnits="userSpaceOnUse"
       gradientTransform="matrix(1.3753185,0,0,1.3707729,-15.620255,-0.86351184)"
       x1="18.364641"
       y1="27.298492"
       x2="27.14432"
       y2="9.0842066" />
    <linearGradient
       inkscape:collect="always"
       xlink:href="#linearGradient26716"
       id="linearGradient28300"
       gradientUnits="userSpaceOnUse"
       gradientTransform="matrix(1.3753186,0,0,1.3707728,-15.620255,-0.86351182)"
       x1="22.034214"
       y1="13.101957"
       x2="21.281889"
       y2="22.647898" />
    <radialGradient
       inkscape:collect="always"
       xlink:href="#linearGradient26468"
       id="radialGradient28302"
       gradientUnits="userSpaceOnUse"
       gradientTransform="matrix(1,0,0,0.36752138,0,8.5884601)"
       cx="23.915361"
       cy="13.579052"
       fx="23.915361"
       fy="13.579052"
       r="2.9546962" />
    <radialGradient
       inkscape:collect="always"
       xlink:href="#linearGradient26498"
       id="radialGradient28304"
       gradientUnits="userSpaceOnUse"
       gradientTransform="matrix(1.3836137,0.01650131,-0.02214235,1.9774959,-17.50691,-5.3582224)"
       cx="22.61902"
       cy="5.3720493"
       fx="22.61902"
       fy="5.3720493"
       r="6.1176183" />
    <linearGradient
       inkscape:collect="always"
       xlink:href="#linearGradient26757"
       id="linearGradient28306"
       gradientUnits="userSpaceOnUse"
       gradientTransform="matrix(1.4127971,0,0,1.4076164,-16.632788,-0.18849063)"
       x1="20.706244"
       y1="21.612629"
       x2="19.026489"
       y2="12.319225" />
    <linearGradient
       inkscape:collect="always"
       xlink:href="#linearGradient26757"
       id="linearGradient28308"
       gradientUnits="userSpaceOnUse"
       gradientTransform="matrix(1.4127971,0,0,1.4076164,-16.632788,-0.18849063)"
       x1="21.861649"
       y1="21.688368"
       x2="24.757906"
       y2="13.607148" />
    <linearGradient
       inkscape:collect="always"
       xlink:href="#linearGradient26779"
       id="linearGradient28310"
       gradientUnits="userSpaceOnUse"
       gradientTransform="matrix(1.4127971,0,0,1.4076164,-16.632788,-0.18849063)"
       x1="24.470945"
       y1="5.5230856"
       x2="26.81955"
       y2="4.8917403" />
    <radialGradient
       inkscape:collect="always"
       xlink:href="#linearGradient26498"
       id="radialGradient28352"
       gradientUnits="userSpaceOnUse"
       gradientTransform="matrix(1.1548872,0.00280877,-0.00667575,1.3898201,-3.4675333,-2.4369712)"
       cx="22.951818"
       cy="6.0514746"
       fx="22.951818"
       fy="6.0514746"
       r="6.1176181" />
    <radialGradient
       inkscape:collect="always"
       xlink:href="#linearGradient26498"
       id="radialGradient28354"
       gradientUnits="userSpaceOnUse"
       gradientTransform="matrix(1.1548872,0.00280877,-0.00667575,1.3898201,-3.4675333,-2.4369712)"
       cx="22.951818"
       cy="6.0514746"
       fx="22.951818"
       fy="6.0514746"
       r="6.1176181" />
    <linearGradient
       inkscape:collect="always"
       xlink:href="#linearGradient26627"
       id="linearGradient28356"
       gradientUnits="userSpaceOnUse"
       gradientTransform="matrix(1.3438221,0,0,1.3397584,-14.508794,-0.85211168)"
       x1="19.936892"
       y1="12.734727"
       x2="20.432528"
       y2="29.056328" />
    <linearGradient
       inkscape:collect="always"
       xlink:href="#linearGradient26698"
       id="linearGradient28358"
       gradientUnits="userSpaceOnUse"
       gradientTransform="matrix(1.4127971,0,0,1.4076164,-16.632786,-0.18849064)"
       x1="9.3219767"
       y1="26.351168"
       x2="14.512268"
       y2="6.5521774" />
    <linearGradient
       inkscape:collect="always"
       xlink:href="#linearGradient26596"
       id="linearGradient28360"
       gradientUnits="userSpaceOnUse"
       gradientTransform="matrix(1.4679111,0,0,1.4609067,-15.918422,-4.388858)"
       x1="28.571428"
       y1="17.178572"
       x2="31.714285"
       y2="31.107143" />
    <linearGradient
       inkscape:collect="always"
       xlink:href="#linearGradient26698"
       id="linearGradient28362"
       gradientUnits="userSpaceOnUse"
       gradientTransform="matrix(1.3753185,0,0,1.3707729,-15.620255,-0.86351184)"
       x1="18.364641"
       y1="27.298492"
       x2="27.14432"
       y2="9.0842066" />
    <linearGradient
       inkscape:collect="always"
       xlink:href="#linearGradient26716"
       id="linearGradient28364"
       gradientUnits="userSpaceOnUse"
       gradientTransform="matrix(1.3753186,0,0,1.3707728,-15.620255,-0.86351182)"
       x1="22.034214"
       y1="13.101957"
       x2="21.281889"
       y2="22.647898" />
    <radialGradient
       inkscape:collect="always"
       xlink:href="#linearGradient26468"
       id="radialGradient28366"
       gradientUnits="userSpaceOnUse"
       gradientTransform="matrix(1,0,0,0.36752138,0,8.5884601)"
       cx="23.915361"
       cy="13.579052"
       fx="23.915361"
       fy="13.579052"
       r="2.9546962" />
    <radialGradient
       inkscape:collect="always"
       xlink:href="#linearGradient26498"
       id="radialGradient28368"
       gradientUnits="userSpaceOnUse"
       gradientTransform="matrix(1.3836137,0.01650131,-0.02214235,1.9774959,-17.50691,-5.3582224)"
       cx="22.61902"
       cy="5.3720493"
       fx="22.61902"
       fy="5.3720493"
       r="6.1176183" />
    <linearGradient
       inkscape:collect="always"
       xlink:href="#linearGradient26757"
       id="linearGradient28370"
       gradientUnits="userSpaceOnUse"
       gradientTransform="matrix(1.4127971,0,0,1.4076164,-16.632788,-0.18849063)"
       x1="20.706244"
       y1="21.612629"
       x2="19.026489"
       y2="12.319225" />
    <linearGradient
       inkscape:collect="always"
       xlink:href="#linearGradient26757"
       id="linearGradient28372"
       gradientUnits="userSpaceOnUse"
       gradientTransform="matrix(1.4127971,0,0,1.4076164,-16.632788,-0.18849063)"
       x1="21.861649"
       y1="21.688368"
       x2="24.757906"
       y2="13.607148" />
    <linearGradient
       inkscape:collect="always"
       xlink:href="#linearGradient26779"
       id="linearGradient28374"
       gradientUnits="userSpaceOnUse"
       gradientTransform="matrix(1.4127971,0,0,1.4076164,-16.632788,-0.18849063)"
       x1="24.470945"
       y1="5.5230856"
       x2="26.81955"
       y2="4.8917403" />
    <radialGradient
       inkscape:collect="always"
       xlink:href="#XMLID_530_"
       id="radialGradient3651"
       gradientUnits="userSpaceOnUse"
       gradientTransform="matrix(-1,0,0,1,55.3594,0)"
       cx="33.161098"
       cy="46.3652"
       fx="33.161098"
       fy="46.3652"
       r="28.434601" />
    <radialGradient
       id="XMLID_530_"
       cx="33.161098"
       cy="46.3652"
       r="28.434601"
       fx="33.161098"
       fy="46.3652"
       gradientTransform="matrix(-1,0,0,1,55.3594,0)"
       gradientUnits="userSpaceOnUse">
      <stop
         offset="0"
         style="stop-color:#FFFFFF"
         id="stop7730" />
      <stop
         offset="0.0903"
         style="stop-color:#F9FAFA"
         id="stop7732" />
      <stop
         offset="0.2113"
         style="stop-color:#E8EBED"
         id="stop7734" />
      <stop
         offset="0.3497"
         style="stop-color:#CCD2D7"
         id="stop7736" />
      <stop
         offset="0.5"
         style="stop-color:#A5B0B8"
         id="stop7738" />
      <stop
         offset="0.5787"
         style="stop-color:#8E9CA6"
         id="stop7740" />
      <stop
         offset="1"
         style="stop-color:#505359"
         id="stop7742" />
      <a:midPointStop
         offset="0"
         style="stop-color:#FFFFFF" />
      <a:midPointStop
         offset="0.6446"
         style="stop-color:#FFFFFF" />
      <a:midPointStop
         offset="0.5787"
         style="stop-color:#8E9CA6" />
      <a:midPointStop
         offset="0.5"
         style="stop-color:#8E9CA6" />
      <a:midPointStop
         offset="1"
         style="stop-color:#505359" />
    </radialGradient>
    <radialGradient
       inkscape:collect="always"
       xlink:href="#XMLID_531_"
       id="radialGradient3653"
       gradientUnits="userSpaceOnUse"
       gradientTransform="matrix(-0.288099,0,0,0.288099,48.64137,12.8083)"
       cx="38.920898"
       cy="39.9268"
       fx="38.920898"
       fy="39.9268"
       r="34.589199" />
    <radialGradient
       id="XMLID_531_"
       cx="38.920898"
       cy="39.9268"
       r="34.589199"
       fx="38.920898"
       fy="39.9268"
       gradientTransform="matrix(-1,0,0,1,55.3594,0)"
       gradientUnits="userSpaceOnUse">
      <stop
         offset="0"
         style="stop-color:#FFFFFF"
         id="stop7749" />
      <stop
         offset="1"
         style="stop-color:#8D9BA6"
         id="stop7751" />
      <a:midPointStop
         offset="0"
         style="stop-color:#FFFFFF" />
      <a:midPointStop
         offset="0.5"
         style="stop-color:#FFFFFF" />
      <a:midPointStop
         offset="1"
         style="stop-color:#8D9BA6" />
    </radialGradient>
    <radialGradient
       r="34.589199"
       fy="39.9268"
       fx="38.920898"
       cy="39.9268"
       cx="38.920898"
       gradientTransform="matrix(-0.288099,0,0,0.288099,48.64137,12.8083)"
       gradientUnits="userSpaceOnUse"
       id="radialGradient29839"
       xlink:href="#XMLID_531_"
       inkscape:collect="always" />
    <radialGradient
       inkscape:collect="always"
       xlink:href="#XMLID_530_"
       id="radialGradient29886"
       gradientUnits="userSpaceOnUse"
       gradientTransform="matrix(-1,0,0,1,55.3594,0)"
       cx="33.161098"
       cy="46.3652"
       fx="33.161098"
       fy="46.3652"
       r="28.434601" />
    <radialGradient
       inkscape:collect="always"
       xlink:href="#XMLID_531_"
       id="radialGradient29888"
       gradientUnits="userSpaceOnUse"
       gradientTransform="matrix(-0.288099,0,0,0.288099,48.64137,12.8083)"
       cx="38.920898"
       cy="39.9268"
       fx="38.920898"
       fy="39.9268"
       r="34.589199" />
    <radialGradient
       inkscape:collect="always"
       xlink:href="#linearGradient26498"
       id="radialGradient29932"
       gradientUnits="userSpaceOnUse"
       gradientTransform="matrix(1.1548872,0.00280877,-0.00667575,1.3898201,-3.4675333,-2.4369712)"
       cx="22.951818"
       cy="6.0514746"
       fx="22.951818"
       fy="6.0514746"
       r="6.1176181" />
    <radialGradient
       inkscape:collect="always"
       xlink:href="#linearGradient26498"
       id="radialGradient29934"
       gradientUnits="userSpaceOnUse"
       gradientTransform="matrix(1.1548872,0.00280877,-0.00667575,1.3898201,-3.4675333,-2.4369712)"
       cx="22.951818"
       cy="6.0514746"
       fx="22.951818"
       fy="6.0514746"
       r="6.1176181" />
    <linearGradient
       inkscape:collect="always"
       xlink:href="#linearGradient26627"
       id="linearGradient29936"
       gradientUnits="userSpaceOnUse"
       gradientTransform="matrix(1.3438221,0,0,1.3397584,-14.508794,-0.85211168)"
       x1="19.936892"
       y1="12.734727"
       x2="20.432528"
       y2="29.056328" />
    <linearGradient
       inkscape:collect="always"
       xlink:href="#linearGradient26698"
       id="linearGradient29938"
       gradientUnits="userSpaceOnUse"
       gradientTransform="matrix(1.4127971,0,0,1.4076164,-16.632786,-0.18849064)"
       x1="9.3219767"
       y1="26.351168"
       x2="14.512268"
       y2="6.5521774" />
    <linearGradient
       inkscape:collect="always"
       xlink:href="#linearGradient26596"
       id="linearGradient29940"
       gradientUnits="userSpaceOnUse"
       gradientTransform="matrix(1.4679111,0,0,1.4609067,-15.918422,-4.388858)"
       x1="28.571428"
       y1="17.178572"
       x2="31.714285"
       y2="31.107143" />
    <linearGradient
       inkscape:collect="always"
       xlink:href="#linearGradient26698"
       id="linearGradient29942"
       gradientUnits="userSpaceOnUse"
       gradientTransform="matrix(1.3753185,0,0,1.3707729,-15.620255,-0.86351184)"
       x1="18.364641"
       y1="27.298492"
       x2="27.14432"
       y2="9.0842066" />
    <linearGradient
       inkscape:collect="always"
       xlink:href="#linearGradient26716"
       id="linearGradient29944"
       gradientUnits="userSpaceOnUse"
       gradientTransform="matrix(1.3753186,0,0,1.3707728,-15.620255,-0.86351182)"
       x1="22.034214"
       y1="13.101957"
       x2="21.281889"
       y2="22.647898" />
    <radialGradient
       inkscape:collect="always"
       xlink:href="#linearGradient26468"
       id="radialGradient29946"
       gradientUnits="userSpaceOnUse"
       gradientTransform="matrix(1,0,0,0.36752138,0,8.5884601)"
       cx="23.915361"
       cy="13.579052"
       fx="23.915361"
       fy="13.579052"
       r="2.9546962" />
    <radialGradient
       inkscape:collect="always"
       xlink:href="#linearGradient26498"
       id="radialGradient29948"
       gradientUnits="userSpaceOnUse"
       gradientTransform="matrix(1.3836137,0.01650131,-0.02214235,1.9774959,-17.50691,-5.3582224)"
       cx="22.61902"
       cy="5.3720493"
       fx="22.61902"
       fy="5.3720493"
       r="6.1176183" />
    <linearGradient
       inkscape:collect="always"
       xlink:href="#linearGradient26757"
       id="linearGradient29950"
       gradientUnits="userSpaceOnUse"
       gradientTransform="matrix(1.4127971,0,0,1.4076164,-16.632788,-0.18849063)"
       x1="20.706244"
       y1="21.612629"
       x2="19.026489"
       y2="12.319225" />
    <linearGradient
       inkscape:collect="always"
       xlink:href="#linearGradient26757"
       id="linearGradient29952"
       gradientUnits="userSpaceOnUse"
       gradientTransform="matrix(1.4127971,0,0,1.4076164,-16.632788,-0.18849063)"
       x1="21.861649"
       y1="21.688368"
       x2="24.757906"
       y2="13.607148" />
    <linearGradient
       inkscape:collect="always"
       xlink:href="#linearGradient26779"
       id="linearGradient29954"
       gradientUnits="userSpaceOnUse"
       gradientTransform="matrix(1.4127971,0,0,1.4076164,-16.632788,-0.18849063)"
       x1="24.470945"
       y1="5.5230856"
       x2="26.81955"
       y2="4.8917403" />
  </defs>
  <sodipodi:namedview
     id="base"
     pagecolor="#ffffff"
     bordercolor="#666666"
     borderopacity="1.0"
     inkscape:pageopacity="0.0"
     inkscape:pageshadow="2"
     inkscape:zoom="9.8994949"
     inkscape:cx="1.0667571"
     inkscape:cy="10.335949"
     inkscape:current-layer="layer1"
     showgrid="true"
     inkscape:grid-bbox="true"
     inkscape:document-units="px"
     inkscape:window-width="2560"
     inkscape:window-height="1475"
     inkscape:window-x="0"
     inkscape:window-y="0"
     inkscape:window-maximized="1" />
  <metadata
     id="metadata3055">
    <rdf:RDF>
      <cc:Work
         rdf:about="">
        <dc:format>image/svg+xml</dc:format>
        <dc:type
           rdf:resource="http://purl.org/dc/dcmitype/StillImage" />
        <dc:title></dc:title>
      </cc:Work>
    </rdf:RDF>
  </metadata>
  <g
     id="layer1"
     inkscape:label="Layer 1"
     inkscape:groupmode="layer">
    <g
       id="g28267"
       transform="matrix(0.65847114,0,0,0.65847114,0.20099295,0.14436808)">
      <path
         sodipodi:nodetypes="sccccccccccccccccs"
         inkscape:connector-curvature="0"
         id="path26655"
         d="m 12.297485,12.464805 c -0.137112,0.01645 -0.24088,0.04783 -0.343831,0.08568 L 5.8506779,15.29203 c 0.056003,-0.01587 0.1494838,-0.02672 0.2148934,-0.04285 -0.8169922,0.402828 -1.5330374,1.203509 -1.8480839,2.098995 l -3.1747516,16.195806 3.3036876,0.76751 3.0514872,-1.070915 0.816596,-1.584959 0.429787,5.097564 11.8249654,4.728261 4.335028,-0.187572 3.610211,1.242264 4.254892,-2.141833 -4.856593,-19.447839 C 27.521795,18.993788 26.607965,17.53344 24.933222,16.662802 L 13.629823,12.550481 c -0.40374,-0.08985 -0.921,-0.135035 -1.332338,-0.08568 z"
         style="fill:#000000;stroke:#ffffff;stroke-width:2.27800441;stroke-miterlimit:4;stroke-dasharray:none" />
      <path
         transform="matrix(0.55212552,0,0,0.49679469,-10.146375,31.835356)"
         d="m 30.456099,7.0635681 c 0,3.5844549 -2.453515,6.4902299 -5.480078,6.4902299 -3.026564,0 -5.480078,-2.905775 -5.480078,-6.4902299 0,-3.5844551 2.453514,-6.49023007 5.480078,-6.49023007 3.026563,0 5.480078,2.90577497 5.480078,6.49023007 z"
         sodipodi:ry="6.4902301"
         sodipodi:rx="5.4800777"
         sodipodi:cy="7.0635681"
         sodipodi:cx="24.976021"
         id="path26445"
         style="color:#000000;fill:url(#radialGradient28288);fill-opacity:1;fill-rule:nonzero;stroke:#ffffff;stroke-width:1.44985926;stroke-linecap:round;stroke-linejoin:miter;stroke-miterlimit:4;stroke-opacity:1;stroke-dasharray:none;stroke-dashoffset:0;marker:none;visibility:visible;display:inline;overflow:visible;enable-background:accumulate"
         sodipodi:type="arc" />
      <path
         inkscape:connector-curvature="0"
         id="path26443"
         d="m 4.3961347,34.596576 3.5587539,-12.174844 0.889688,8.411711 -1.334532,2.582541 z"
         style="fill:#000000;stroke:none" />
      <path
         sodipodi:type="arc"
         style="color:#000000;fill:url(#radialGradient28290);fill-opacity:1;fill-rule:nonzero;stroke:#ffffff;stroke-width:1.23097754;stroke-linecap:round;stroke-linejoin:miter;stroke-miterlimit:4;stroke-opacity:1;stroke-dasharray:none;stroke-dashoffset:0;marker:none;visibility:visible;display:inline;overflow:visible;enable-background:accumulate"
         id="path26439"
         sodipodi:cx="24.976021"
         sodipodi:cy="7.0635681"
         sodipodi:rx="5.4800777"
         sodipodi:ry="6.4902301"
         d="m 30.456099,7.0635681 c 0,3.5844549 -2.453515,6.4902299 -5.480078,6.4902299 -3.026564,0 -5.480078,-2.905775 -5.480078,-6.4902299 0,-3.5844551 2.453514,-6.49023007 5.480078,-6.49023007 3.026563,0 5.480078,2.90577497 5.480078,6.49023007 z"
         transform="matrix(0.65109641,0,0,0.58441443,12.941565,39.595342)" />
      <path
         sodipodi:nodetypes="cccccccccccccccc"
         inkscape:connector-curvature="0"
         id="path26508"
         d="M 1.0515673,33.523013 4.3099634,17.548685 C 4.8314182,16.066499 6.465862,14.794221 7.8049906,15.270943 l 13.0894234,4.377063 c 1.831731,0.538473 3.053147,2.322056 3.514027,4.308493 L 28.491866,42.713135 24.78483,41.458759 21.407095,27.28712 20.580919,40.552121 15.32226,41.421828 13.569714,38.408978 10.373378,39.980511 7.1360346,37.017888 7.1346346,24.136093 4.6926659,34.596575 z"
         style="fill:url(#linearGradient28292);fill-opacity:1;stroke:url(#linearGradient28294);stroke-width:0.75933462;stroke-miterlimit:4;stroke-opacity:1;stroke-dasharray:none" />
      <path
         sodipodi:nodetypes="ccccccccccc"
         inkscape:connector-curvature="0"
         id="path26512"
         d="m 5.9530873,15.485762 6.0795387,-2.730115 c 0.411805,-0.15132 1.166915,-0.119789 1.705238,0 l 11.291743,4.10521 c 1.674742,0.87064 2.600488,2.326966 2.891488,4.279644 l 4.842406,19.459673 -4.271634,2.039175 -4.188952,-18.594307 C 23.898938,22.404 22.319497,20.534881 20.558811,19.765403 L 7.8066076,15.338189 c -0.543701,-0.147931 -1.3839603,0.01463 -1.8535203,0.147573 z"
         style="fill:url(#linearGradient28296);fill-opacity:1;stroke:url(#linearGradient28298);stroke-width:0.75933462;stroke-miterlimit:4;stroke-dasharray:none" />
      <path
         sodipodi:nodetypes="ccccccc"
         inkscape:connector-curvature="0"
         id="path26420"
         d="m 12.539079,28.686423 -1.24786,-12.462791 4.740672,-2.268709 6.547767,2.255053 -4.838194,2.596197 -3.176586,10.446069 z"
         style="fill:#eeeeec;stroke:none" />
      <path
         sodipodi:nodetypes="cccc"
         inkscape:connector-curvature="0"
         id="path26606"
         d="m 13.285309,30.907974 -4.6493204,-7.815656 1.085974,-0.57518 z"
         style="fill:#000000;stroke:none" />
      <path
         sodipodi:nodetypes="cscccccscc"
         inkscape:connector-curvature="0"
         id="path26433"
         d="m 14.034427,16.887714 c 0,0 -1.078247,0.675728 -1.244367,1.235218 -0.159443,0.537008 0.771463,1.261681 0.771463,1.261681 l -1.23949,8.1508 1.004925,3.339421 1.943683,-2.614029 -0.362549,-8.719511 c 0,0 1.026736,-0.277903 1.033293,-0.769739 0.0076,-0.569798 -0.794847,-1.514907 -0.794847,-1.514907 z"
         style="fill:url(#linearGradient28300);fill-opacity:1;stroke:none" />
      <path
         transform="matrix(1.6184662,0,0,1.6107432,-21.780292,-5.6856274)"
         d="m 26.870058,13.579052 c 0,0.599734 -1.322863,1.085914 -2.954697,1.085914 -1.631833,0 -2.954696,-0.48618 -2.954696,-1.085914 0,-0.599734 1.322863,-1.085914 2.954696,-1.085914 1.631834,0 2.954697,0.48618 2.954697,1.085914 z"
         sodipodi:ry="1.085914"
         sodipodi:rx="2.9546962"
         sodipodi:cy="13.579052"
         sodipodi:cx="23.915361"
         id="path26466"
         style="color:#000000;fill:url(#radialGradient28302);fill-opacity:1;fill-rule:nonzero;stroke:none;stroke-width:0.5;marker:none;visibility:visible;display:inline;overflow:visible;enable-background:accumulate"
         sodipodi:type="arc" />
      <path
         sodipodi:nodetypes="sssss"
         inkscape:connector-curvature="0"
         id="path26399"
         d="m 21.755016,7.9325736 c -0.577116,4.7478004 -2.531095,7.5556374 -5.65336,7.5556374 -3.122264,0 -5.3648,-4.388916 -5.65336,-7.5556374 -0.378681,-4.1557746 2.531096,-7.55563611 5.65336,-7.55563611 3.122265,0 6.156912,3.41303681 5.65336,7.55563611 z"
         style="color:#000000;fill:url(#radialGradient28304);fill-opacity:1;fill-rule:nonzero;stroke:#ffffff;stroke-width:0.75933462;stroke-linecap:round;stroke-linejoin:miter;stroke-miterlimit:4;stroke-opacity:1;stroke-dashoffset:0;marker:none;visibility:visible;display:inline;overflow:visible;enable-background:accumulate" />
      <path
         sodipodi:nodetypes="cccc"
         inkscape:connector-curvature="0"
         id="path26608"
         d="m 10.57038,21.40062 -1.9343914,-2.097712 1.22172,-0.473674 z"
         style="color:#000000;fill:#000000;fill-opacity:1;fill-rule:nonzero;stroke:none;stroke-width:1px;marker:none;visibility:visible;display:inline;overflow:visible;enable-background:accumulate" />
      <path
         sodipodi:nodetypes="cccccc"
         inkscape:connector-curvature="0"
         id="path26418"
         d="m 11.217081,16.444992 -2.5207844,2.066035 1.6196274,2.004844 -1.6196274,1.536928 4.6911964,8.888262 z"
         style="fill:url(#linearGradient28306);fill-opacity:1;stroke:none" />
      <path
         sodipodi:nodetypes="cccccc"
         inkscape:connector-curvature="0"
         id="path26604"
         d="m 17.731008,18.930737 2.748868,3.146561 -2.816741,1.522529 2.511312,2.469883 -6.583709,4.63526 z"
         style="fill:#000000;stroke:none" />
      <path
         sodipodi:nodetypes="cccccc"
         style="fill:url(#linearGradient28308);fill-opacity:1;stroke:none"
         d="m 17.712692,18.701432 2.487705,2.53971 -2.494159,1.328163 1.972032,2.21361 -6.281268,6.105598 z"
         id="path26431"
         inkscape:connector-curvature="0" />
      <path
         inkscape:connector-curvature="0"
         id="path26643"
         d="m 13.529833,30.704968 0.06787,7.578821"
         style="fill:none;stroke:#000000;stroke-width:0.75933462;stroke-linecap:butt;stroke-linejoin:miter;stroke-miterlimit:4;stroke-opacity:1;stroke-dasharray:none" />
      <path
         style="fill:none;stroke:#888a85;stroke-width:0.75933462;stroke-linecap:butt;stroke-linejoin:miter;stroke-miterlimit:4;stroke-opacity:1;stroke-dasharray:none"
         d="m 12.744906,30.633873 0.06787,7.578819"
         id="path26737"
         inkscape:connector-curvature="0" />
      <path
         inkscape:connector-curvature="0"
         id="path26777"
         d="m 17.404517,7.1593227 3.781922,-0.8531444 0.07136,0.6398582 -4.566849,1.4219074 z"
         style="fill:url(#linearGradient28310);fill-opacity:1;stroke:none" />
      <path
         sodipodi:nodetypes="cccssssc"
         inkscape:connector-curvature="0"
         id="path26775"
         d="m 10.197457,5.5241294 c 1.115291,0.1023067 2.230581,0.2482737 3.345871,1.0087932 1.32682,-0.3281391 2.991642,0.01725 4.717474,0.4842092 0,0 0.08939,0.6538184 -0.398701,1.1142306 -0.856093,0.8075488 -1.181763,2.3736636 -2.170153,2.3694416 -1.081126,-0.0046 -2.067765,-2.191486 -2.568853,-2.3461462 -0.33566,-0.103602 -0.621806,1.5930177 -1.498498,1.564098 -1.129599,-0.037263 -1.083284,-2.653193 -1.42714,-4.1946264 z"
         style="fill:#000000;stroke:none" />
    </g>
    <g
       transform="matrix(0.65847114,0,0,0.65847114,25.656837,8.1245732)"
       id="g28312">
      <path
         style="fill:#000000;stroke:#ffffff;stroke-width:2.27800441;stroke-miterlimit:4;stroke-dasharray:none"
         d="m 12.297485,12.464805 c -0.137112,0.01645 -0.24088,0.04783 -0.343831,0.08568 L 5.8506779,15.29203 c 0.056003,-0.01587 0.1494838,-0.02672 0.2148934,-0.04285 -0.8169922,0.402828 -1.5330374,1.203509 -1.8480839,2.098995 l -3.1747516,16.195806 3.3036876,0.76751 3.0514872,-1.070915 0.816596,-1.584959 0.429787,5.097564 11.8249654,4.728261 4.335028,-0.187572 3.610211,1.242264 4.254892,-2.141833 -4.856593,-19.447839 C 27.521795,18.993788 26.607965,17.53344 24.933222,16.662802 L 13.629823,12.550481 c -0.40374,-0.08985 -0.921,-0.135035 -1.332338,-0.08568 z"
         id="path28314"
         inkscape:connector-curvature="0"
         sodipodi:nodetypes="sccccccccccccccccs" />
      <path
         sodipodi:type="arc"
         style="color:#000000;fill:url(#radialGradient28352);fill-opacity:1;fill-rule:nonzero;stroke:#ffffff;stroke-width:1.44985926;stroke-linecap:round;stroke-linejoin:miter;stroke-miterlimit:4;stroke-opacity:1;stroke-dasharray:none;stroke-dashoffset:0;marker:none;visibility:visible;display:inline;overflow:visible;enable-background:accumulate"
         id="path28316"
         sodipodi:cx="24.976021"
         sodipodi:cy="7.0635681"
         sodipodi:rx="5.4800777"
         sodipodi:ry="6.4902301"
         d="m 30.456099,7.0635681 c 0,3.5844549 -2.453515,6.4902299 -5.480078,6.4902299 -3.026564,0 -5.480078,-2.905775 -5.480078,-6.4902299 0,-3.5844551 2.453514,-6.49023007 5.480078,-6.49023007 3.026563,0 5.480078,2.90577497 5.480078,6.49023007 z"
         transform="matrix(0.55212552,0,0,0.49679469,-10.146375,31.835356)" />
      <path
         style="fill:#000000;stroke:none"
         d="m 4.3961347,34.596576 3.5587539,-12.174844 0.889688,8.411711 -1.334532,2.582541 z"
         id="path28318"
         inkscape:connector-curvature="0" />
      <path
         transform="matrix(0.65109641,0,0,0.58441443,12.941565,39.595342)"
         d="m 30.456099,7.0635681 c 0,3.5844549 -2.453515,6.4902299 -5.480078,6.4902299 -3.026564,0 -5.480078,-2.905775 -5.480078,-6.4902299 0,-3.5844551 2.453514,-6.49023007 5.480078,-6.49023007 3.026563,0 5.480078,2.90577497 5.480078,6.49023007 z"
         sodipodi:ry="6.4902301"
         sodipodi:rx="5.4800777"
         sodipodi:cy="7.0635681"
         sodipodi:cx="24.976021"
         id="path28320"
         style="color:#000000;fill:url(#radialGradient28354);fill-opacity:1;fill-rule:nonzero;stroke:#ffffff;stroke-width:1.23097754;stroke-linecap:round;stroke-linejoin:miter;stroke-miterlimit:4;stroke-opacity:1;stroke-dasharray:none;stroke-dashoffset:0;marker:none;visibility:visible;display:inline;overflow:visible;enable-background:accumulate"
         sodipodi:type="arc" />
      <path
         style="fill:url(#linearGradient28356);fill-opacity:1;stroke:url(#linearGradient28358);stroke-width:0.75933462;stroke-miterlimit:4;stroke-opacity:1;stroke-dasharray:none"
         d="M 1.0515673,33.523013 4.3099634,17.548685 C 4.8314182,16.066499 6.465862,14.794221 7.8049906,15.270943 l 13.0894234,4.377063 c 1.831731,0.538473 3.053147,2.322056 3.514027,4.308493 L 28.491866,42.713135 24.78483,41.458759 21.407095,27.28712 20.580919,40.552121 15.32226,41.421828 13.569714,38.408978 10.373378,39.980511 7.1360346,37.017888 7.1346346,24.136093 4.6926659,34.596575 z"
         id="path28322"
         inkscape:connector-curvature="0"
         sodipodi:nodetypes="cccccccccccccccc" />
      <path
         style="fill:url(#linearGradient28360);fill-opacity:1;stroke:url(#linearGradient28362);stroke-width:0.75933462;stroke-miterlimit:4;stroke-dasharray:none"
         d="m 5.9530873,15.485762 6.0795387,-2.730115 c 0.411805,-0.15132 1.166915,-0.119789 1.705238,0 l 11.291743,4.10521 c 1.674742,0.87064 2.600488,2.326966 2.891488,4.279644 l 4.842406,19.459673 -4.271634,2.039175 -4.188952,-18.594307 C 23.898938,22.404 22.319497,20.534881 20.558811,19.765403 L 7.8066076,15.338189 c -0.543701,-0.147931 -1.3839603,0.01463 -1.8535203,0.147573 z"
         id="path28324"
         inkscape:connector-curvature="0"
         sodipodi:nodetypes="ccccccccccc" />
      <path
         style="fill:#eeeeec;stroke:none"
         d="m 12.539079,28.686423 -1.24786,-12.462791 4.740672,-2.268709 6.547767,2.255053 -4.838194,2.596197 -3.176586,10.446069 z"
         id="path28326"
         inkscape:connector-curvature="0"
         sodipodi:nodetypes="ccccccc" />
      <path
         style="fill:#000000;stroke:none"
         d="m 13.285309,30.907974 -4.6493204,-7.815656 1.085974,-0.57518 z"
         id="path28328"
         inkscape:connector-curvature="0"
         sodipodi:nodetypes="cccc" />
      <path
         style="fill:url(#linearGradient28364);fill-opacity:1;stroke:none"
         d="m 14.034427,16.887714 c 0,0 -1.078247,0.675728 -1.244367,1.235218 -0.159443,0.537008 0.771463,1.261681 0.771463,1.261681 l -1.23949,8.1508 1.004925,3.339421 1.943683,-2.614029 -0.362549,-8.719511 c 0,0 1.026736,-0.277903 1.033293,-0.769739 0.0076,-0.569798 -0.794847,-1.514907 -0.794847,-1.514907 z"
         id="path28330"
         inkscape:connector-curvature="0"
         sodipodi:nodetypes="cscccccscc" />
      <path
         sodipodi:type="arc"
         style="color:#000000;fill:url(#radialGradient28366);fill-opacity:1;fill-rule:nonzero;stroke:none;stroke-width:0.5;marker:none;visibility:visible;display:inline;overflow:visible;enable-background:accumulate"
         id="path28332"
         sodipodi:cx="23.915361"
         sodipodi:cy="13.579052"
         sodipodi:rx="2.9546962"
         sodipodi:ry="1.085914"
         d="m 26.870058,13.579052 c 0,0.599734 -1.322863,1.085914 -2.954697,1.085914 -1.631833,0 -2.954696,-0.48618 -2.954696,-1.085914 0,-0.599734 1.322863,-1.085914 2.954696,-1.085914 1.631834,0 2.954697,0.48618 2.954697,1.085914 z"
         transform="matrix(1.6184662,0,0,1.6107432,-21.780292,-5.6856274)" />
      <path
         style="color:#000000;fill:url(#radialGradient28368);fill-opacity:1;fill-rule:nonzero;stroke:#ffffff;stroke-width:0.75933462;stroke-linecap:round;stroke-linejoin:miter;stroke-miterlimit:4;stroke-opacity:1;stroke-dashoffset:0;marker:none;visibility:visible;display:inline;overflow:visible;enable-background:accumulate"
         d="m 21.755016,7.9325736 c -0.577116,4.7478004 -2.531095,7.5556374 -5.65336,7.5556374 -3.122264,0 -5.3648,-4.388916 -5.65336,-7.5556374 -0.378681,-4.1557746 2.531096,-7.55563611 5.65336,-7.55563611 3.122265,0 6.156912,3.41303681 5.65336,7.55563611 z"
         id="path28334"
         inkscape:connector-curvature="0"
         sodipodi:nodetypes="sssss" />
      <path
         style="color:#000000;fill:#000000;fill-opacity:1;fill-rule:nonzero;stroke:none;stroke-width:1px;marker:none;visibility:visible;display:inline;overflow:visible;enable-background:accumulate"
         d="m 10.57038,21.40062 -1.9343914,-2.097712 1.22172,-0.473674 z"
         id="path28336"
         inkscape:connector-curvature="0"
         sodipodi:nodetypes="cccc" />
      <path
         style="fill:url(#linearGradient28370);fill-opacity:1;stroke:none"
         d="m 11.217081,16.444992 -2.5207844,2.066035 1.6196274,2.004844 -1.6196274,1.536928 4.6911964,8.888262 z"
         id="path28338"
         inkscape:connector-curvature="0"
         sodipodi:nodetypes="cccccc" />
      <path
         style="fill:#000000;stroke:none"
         d="m 17.731008,18.930737 2.748868,3.146561 -2.816741,1.522529 2.511312,2.469883 -6.583709,4.63526 z"
         id="path28340"
         inkscape:connector-curvature="0"
         sodipodi:nodetypes="cccccc" />
      <path
         inkscape:connector-curvature="0"
         id="path28342"
         d="m 17.712692,18.701432 2.487705,2.53971 -2.494159,1.328163 1.972032,2.21361 -6.281268,6.105598 z"
         style="fill:url(#linearGradient28372);fill-opacity:1;stroke:none"
         sodipodi:nodetypes="cccccc" />
      <path
         style="fill:none;stroke:#000000;stroke-width:0.75933462;stroke-linecap:butt;stroke-linejoin:miter;stroke-miterlimit:4;stroke-opacity:1;stroke-dasharray:none"
         d="m 13.529833,30.704968 0.06787,7.578821"
         id="path28344"
         inkscape:connector-curvature="0" />
      <path
         inkscape:connector-curvature="0"
         id="path28346"
         d="m 12.744906,30.633873 0.06787,7.578819"
         style="fill:none;stroke:#888a85;stroke-width:0.75933462;stroke-linecap:butt;stroke-linejoin:miter;stroke-miterlimit:4;stroke-opacity:1;stroke-dasharray:none" />
      <path
         style="fill:url(#linearGradient28374);fill-opacity:1;stroke:none"
         d="m 17.404517,7.1593227 3.781922,-0.8531444 0.07136,0.6398582 -4.566849,1.4219074 z"
         id="path28348"
         inkscape:connector-curvature="0" />
      <path
         style="fill:#000000;stroke:none"
         d="m 10.197457,5.5241294 c 1.115291,0.1023067 2.230581,0.2482737 3.345871,1.0087932 1.32682,-0.3281391 2.991642,0.01725 4.717474,0.4842092 0,0 0.08939,0.6538184 -0.398701,1.1142306 -0.856093,0.8075488 -1.181763,2.3736636 -2.170153,2.3694416 -1.081126,-0.0046 -2.067765,-2.191486 -2.568853,-2.3461462 -0.33566,-0.103602 -0.621806,1.5930177 -1.498498,1.564098 -1.129599,-0.037263 -1.083284,-2.653193 -1.42714,-4.1946264 z"
         id="path28350"
         inkscape:connector-curvature="0"
         sodipodi:nodetypes="cccssssc" />
    </g>
    <g
       id="g3639"
       transform="matrix(0.76154461,0,0,0.76145846,3.5777355,21.742367)">
      <circle
         sodipodi:ry="19.018"
         sodipodi:rx="19.018"
         sodipodi:cy="54.053001"
         sodipodi:cx="27.679001"
         style="fill:url(#radialGradient3651);stroke:#192333;stroke-width:4.34256506"
         id="circle3511"
         r="19.018"
         cy="54.053001"
         cx="27.679001"
         i:knockout="Off"
         transform="matrix(0.302401,0,0,0.302401,32.29651,12.03529)"
         d="m 46.697001,54.053001 c 0,10.503352 -8.514649,19.018 -19.018,19.018 -10.503351,0 -19.0179998,-8.514648 -19.0179998,-19.018 0,-10.503351 8.5146488,-19.017999 19.0179998,-19.017999 10.503351,0 19.018,8.514648 19.018,19.017999 z" />
      <path
         inkscape:connector-curvature="0"
         d="m 40.66695,23.045923 c -2.941785,0 -5.335316,2.393531 -5.335316,5.335317 0,2.941496 2.393531,5.334739 5.335316,5.334739 2.941785,0 5.335029,-2.393243 5.335029,-5.334739 -2.89e-4,-2.942073 -2.393244,-5.335317 -5.335029,-5.335317 z m -1.3e-5,9.92754 c -2.532613,0 -4.593048,-2.059912 -4.593048,-4.592524 0,-2.532614 2.060435,-4.592788 4.593048,-4.592788 2.532351,0 4.592787,2.060437 4.592787,4.59305 0,2.532613 -2.060436,4.592262 -4.592787,4.592262 z"
         style="fill:url(#radialGradient29839)"
         id="path3624" />
    </g>
    <g
       transform="matrix(0.76154461,0,0,0.76145846,-21.777093,13.863177)"
       id="g29880">
      <circle
         d="m 46.697001,54.053001 c 0,10.503352 -8.514649,19.018 -19.018,19.018 -10.503351,0 -19.0179998,-8.514648 -19.0179998,-19.018 0,-10.503351 8.5146488,-19.017999 19.0179998,-19.017999 10.503351,0 19.018,8.514648 19.018,19.017999 z"
         transform="matrix(0.302401,0,0,0.302401,32.29651,12.03529)"
         i:knockout="Off"
         cx="27.679001"
         cy="54.053001"
         r="19.018"
         id="circle29882"
         style="fill:url(#radialGradient29886);stroke:#192333;stroke-width:4.34256506"
         sodipodi:cx="27.679001"
         sodipodi:cy="54.053001"
         sodipodi:rx="19.018"
         sodipodi:ry="19.018" />
      <path
         id="path29884"
         style="fill:url(#radialGradient29888)"
         d="m 40.66695,23.045923 c -2.941785,0 -5.335316,2.393531 -5.335316,5.335317 0,2.941496 2.393531,5.334739 5.335316,5.334739 2.941785,0 5.335029,-2.393243 5.335029,-5.334739 -2.89e-4,-2.942073 -2.393244,-5.335317 -5.335029,-5.335317 z m -1.3e-5,9.92754 c -2.532613,0 -4.593048,-2.059912 -4.593048,-4.592524 0,-2.532614 2.060435,-4.592788 4.593048,-4.592788 2.532351,0 4.592787,2.060437 4.592787,4.59305 0,2.532613 -2.060436,4.592262 -4.592787,4.592262 z"
         inkscape:connector-curvature="0" />
    </g>
  </g>
</svg>
