{
	"asset":{
		"version":"2.0",
		"generator":"Houdini GLTF 2.0 Exporter"
	},
	"accessors":[
		{
			"bufferView":0,
			"componentType":5123,
			"count":17304,
			"type":"SCALAR",
			"min":[0
			],
			"max":[3301
			]
		},
		{
			"bufferView":1,
			"componentType":5126,
			"count":3302,
			"type":"VEC3",
			"min":[-1.00253582,-1.3353765,-0.9231264
			],
			"max":[0.997669697,0.566099465,1.27343249
			]
		},
		{
			"bufferView":2,
			"componentType":5126,
			"count":3302,
			"type":"VEC3",
			"min":[0.5,1,0
			],
			"max":[0.5,1,0
			]
		},
		{
			"bufferView":3,
			"componentType":5126,
			"count":3302,
			"type":"VEC3",
			"min":[-0.998530984,-0.999779999,-0.998943269
			],
			"max":[0.998688757,0.999999344,0.999589324
			]
		},
		{
			"bufferView":4,
			"componentType":5126,
			"count":3302,
			"type":"VEC4",
			"min":[-0.796522796,-0.983839989,-0.989919484,1
			],
			"max":[0.997050583,0.997417629,0.999903023,1
			]
		},
		{
			"bufferView":5,
			"componentType":5126,
			"count":3302,
			"type":"VEC2",
			"min":[0.00999999978,0.00999999046
			],
			"max":[0.975960791,0.99000001
			]
		}
	],
	"buffers":[
		{
			"uri":"pig_data.bin",
			"byteLength":232728,
			"name":"main_buffer"
		}
	],
	"bufferViews":[
		{
			"buffer":0,
			"byteLength":34608,
			"target":34963
		},
		{
			"buffer":0,
			"byteOffset":34608,
			"byteLength":39624,
			"target":34962
		},
		{
			"buffer":0,
			"byteOffset":74232,
			"byteLength":39624,
			"target":34962
		},
		{
			"buffer":0,
			"byteOffset":113856,
			"byteLength":39624,
			"target":34962
		},
		{
			"buffer":0,
			"byteOffset":153480,
			"byteLength":52832,
			"target":34962
		},
		{
			"buffer":0,
			"byteOffset":206312,
			"byteLength":26416,
			"target":34962
		}
	],
	"nodes":[
		{
			"name":"geo1",
			"mesh":0
		}
	],
	"meshes":[
		{
			"primitives":[
				{
					"attributes":{
						"POSITION":1,
						"TANGENT":4,
						"COLOR_0":2,
						"TEXCOORD_0":5,
						"NORMAL":3
					},
					"indices":0,
					"material":0
				}
			],
			"name":"pighead"
		}
	],
	"materials":[
		{
			"name":"principledshader",
			"pbrMetallicRoughness":{
				"metallicFactor":0,
				"roughnessFactor":0.300000012,
				"baseColorTexture":{
					"index":0
				}
			}
		}
	],
	"scenes":[
		{
			"nodes":[0
			]
		}
	],
	"textures":[
		{
			"source":0
		}
	],
	"images":[
		{
			"uri":"side.jpg",
			"mimeType":"image/jpeg"
		}
	],
	"scene":0
}
