<?xml version="1.0" encoding="UTF-8" standalone="no"?>
<!-- Generator: Adobe Illustrator 15.0.0, SVG Export Plug-In . SVG Version: 6.00 Build 0)  -->
<svg
   xmlns:dc="http://purl.org/dc/elements/1.1/"
   xmlns:cc="http://creativecommons.org/ns#"
   xmlns:rdf="http://www.w3.org/1999/02/22-rdf-syntax-ns#"
   xmlns:svg="http://www.w3.org/2000/svg"
   xmlns="http://www.w3.org/2000/svg"
   xmlns:xlink="http://www.w3.org/1999/xlink"
   xmlns:sodipodi="http://sodipodi.sourceforge.net/DTD/sodipodi-0.dtd"
   xmlns:inkscape="http://www.inkscape.org/namespaces/inkscape"
   version="1.0"
   id="Layer_1"
   x="0px"
   y="0px"
   width="48"
   height="48"
   viewBox="0 0 612 792"
   enable-background="new 0 0 612 792"
   xml:space="preserve"
   sodipodi:version="0.32"
   inkscape:version="0.46"
   sodipodi:docname="Polyreduce.svg"
   inkscape:output_extension="org.inkscape.output.svg.inkscape"><metadata
   id="metadata2473"><rdf:RDF><cc:Work
       rdf:about=""><dc:format>image/svg+xml</dc:format><dc:type
         rdf:resource="http://purl.org/dc/dcmitype/StillImage" /></cc:Work></rdf:RDF></metadata><defs
   id="defs2471"><linearGradient
     id="linearGradient53298"><stop
       style="stop-color:#b57676;stop-opacity:1;"
       offset="0"
       id="stop53300" /><stop
       style="stop-color:#96132a;stop-opacity:1;"
       offset="1"
       id="stop53302" /></linearGradient><linearGradient
     id="linearGradient52042"><stop
       style="stop-color:#a3dfff;stop-opacity:1;"
       offset="0"
       id="stop52044" /><stop
       style="stop-color:#10acff;stop-opacity:1;"
       offset="1"
       id="stop52046" /></linearGradient><inkscape:perspective
     id="perspective52978"
     inkscape:persp3d-origin="306 : 264 : 1"
     inkscape:vp_z="612 : 396 : 1"
     inkscape:vp_y="0 : 1000 : 0"
     inkscape:vp_x="0 : 396 : 1"
     sodipodi:type="inkscape:persp3d" /><inkscape:perspective
     id="perspective53227"
     inkscape:persp3d-origin="306 : 264 : 1"
     inkscape:vp_z="612 : 396 : 1"
     inkscape:vp_y="0 : 1000 : 0"
     inkscape:vp_x="0 : 396 : 1"
     sodipodi:type="inkscape:persp3d" /><radialGradient
     inkscape:collect="always"
     xlink:href="#linearGradient53298"
     id="radialGradient53304"
     cx="34.875298"
     cy="144.02995"
     fx="34.875298"
     fy="144.02995"
     r="302.78313"
     gradientTransform="matrix(1.0101705,0,0,1.2208536,92.767417,-82.41424)"
     gradientUnits="userSpaceOnUse" /></defs><sodipodi:namedview
   inkscape:window-height="1538"
   inkscape:window-width="2560"
   inkscape:pageshadow="2"
   inkscape:pageopacity="0.0"
   guidetolerance="10.0"
   gridtolerance="10.0"
   objecttolerance="10.0"
   borderopacity="1.0"
   bordercolor="#666666"
   pagecolor="#ffffff"
   id="base"
   showgrid="false"
   inkscape:zoom="18.666667"
   inkscape:cx="14.718248"
   inkscape:cy="26.022745"
   inkscape:window-x="-8"
   inkscape:window-y="-8"
   inkscape:current-layer="Layer_1" />
















<path
   style="fill:none;stroke:#790018;stroke-width:23.12894058;stroke-linecap:round;stroke-linejoin:round;stroke-miterlimit:10"
   stroke-miterlimit="10"
   d="M 102.58203,755.6317 C -7.440564,394.69568 19.193305,201.15981 38.763947,157.14365 C 59.722326,72.989894 136.15458,13.3706 224.27585,13.3706 C 282.45404,13.3706 324.08613,44.327798 363.56545,89.891812 C 376.14405,87.223088 399.6466,79.572746 410.97978,77.900346 L 422.17064,76.227945 L 449.2315,71.317493 C 458.26957,69.324846 464.79905,68.239565 471.36412,67.385573 L 493.01637,63.222364 C 493.01637,63.222364 507.96121,70.872706 520.68214,78.736546 C 543.82887,91.119426 563.4173,105.28145 586.15483,121.703 L 593.48492,127.04045 C 594.57021,127.82327 594.94383,128.16132 595.35303,128.64168 L 598.1285,131.70182 L 597.95059,132.28895 C 598.32421,132.85827 601.31318,136.86136 601.31318,136.86136 L 601.6868,138.08897 C 612.9844,174.6327 628.35625,215.30405 637.69678,258.9288 C 640.20539,270.38651 647.57107,303.44311 647.57107,303.44311 C 647.57107,303.44311 625.40286,350.7329 618.55314,365.28634 L 613.55373,375.87227 C 613.55373,375.87227 522.39011,429.46025 493.44336,445.29468 L 481.91447,451.64624 C 441.15416,477.53287 350.47092,533.02454 350.47092,533.02454 C 343.56782,538.37977 297.22098,571.52533 270.01779,590.91805 C 264.02205,595.18801 254.48581,601.52178 250.96309,605.02671 C 244.96737,611.04023 235.71578,619.50899 231.19674,626.21638 C 212.85371,653.34841 156.38351,715.13826 156.38351,715.13826 C 140.49571,735.59848 121.08519,768.10354 109.92992,780.39746 C 106.28266,770.93238 102.58203,755.6317 102.58203,755.6317 z"
   id="path53172" /><path
   style="fill:url(#radialGradient53304);fill-opacity:1"
   d="M 363.88571,97.524362 C 391.30239,91.315132 424.89273,84.394241 453.76832,78.024887 C 470.45674,74.342048 478.05372,73.790511 494.11943,72.135902 C 532.03311,88.219412 558.29335,107.96797 591.31436,131.7552 C 594.12542,133.78343 595.76224,137.09265 597.87943,139.86812 C 610.01322,179.20511 624.99365,219.3961 633.76486,260.06745 C 636.02438,270.63559 641.45079,282.3424 642.80294,292.82158 C 637.99925,320.45177 622.43168,350.37707 606.77517,372.33177 C 599.33832,382.722 586.58182,384.8036 575.46215,391.1018 C 555.07309,404.44541 532.38893,417.05958 493.05194,438.58729 C 431.88479,472.08867 346.30771,523.54167 251.72814,601.18375 C 203.53097,640.76982 161.11605,696.91978 114.34221,759.52804 C 1.028191,389.89197 30.295196,200.51931 48.44252,159.68784 C 68.493532,79.572746 140.99387,20.220325 227.35378,20.220325 C 281.61784,20.220325 323.19656,48.651131 363.88571,97.524362 z"
   id="path53174" /><g
   id="g53178"
   transform="matrix(17.791493,0,0,17.791493,-5117.4777,-6650.629)">
	<path
   style="fill:none;stroke:#fee7e1;stroke-width:0.40000001;stroke-linecap:round;stroke-linejoin:round;stroke-miterlimit:10"
   stroke-miterlimit="10"
   d="M 312.5,387.386 L 316.424,387.386 L 318.897,387.352 L 319.379,385.931 L 320.971,381.293 C 320.908,381.219 316.444,378.163 315.475,377.782 L 310.528,381.336 L 312.5,387.386 z"
   id="path53180" />
	<path
   style="fill:none;stroke:#fee7e1;stroke-width:0.40000001;stroke-linecap:round;stroke-linejoin:round;stroke-miterlimit:10"
   stroke-miterlimit="10"
   d="M 320.961,381.297 L 319.379,385.931 L 318.918,387.355 L 318.945,387.44 L 323.786,391.038 C 323.595,390.106 322.789,388.016 322.59,387.153 C 321.977,384.506 321.68,383.701 320.961,381.297 z"
   id="path53182" />
	<path
   style="fill:none;stroke:#fee7e1;stroke-width:0.40000001;stroke-linecap:round;stroke-linejoin:round;stroke-miterlimit:10"
   stroke-miterlimit="10"
   d="M 296.875,403.848 L 298.9,397.612 L 305.214,397.524 L 298.852,397.524 L 297.876,394.657 C 297.727,395.282 297.597,396.061 297.403,396.675 L 298.821,397.641 L 296.849,403.868 L 295.503,403.899 C 295.421,404.274 295.342,404.649 295.261,405.036 L 296.839,403.903"
   id="path53184" />
	
		<polygon
   style="fill:none;stroke:#fee7e1;stroke-width:0.40000001;stroke-linecap:round;stroke-linejoin:round;stroke-miterlimit:10"
   stroke-miterlimit="10"
   points="318.918,387.352 318.918,387.355 319.379,385.931 318.896,387.352 318.918,387.352 "
   id="polygon53186" />
	<path
   style="fill:none;stroke:#fee7e1;stroke-width:0.40000001;stroke-linecap:round;stroke-linejoin:round;stroke-miterlimit:10"
   stroke-miterlimit="10"
   d="M 303.231,383.737 C 302.429,385.023 301.36,386.735 300.255,388.736 L 302.19,387.665 L 303.231,383.737 z"
   id="path53188" />
	<path
   style="fill:none;stroke:#fee7e1;stroke-width:0.40000001;stroke-linecap:round;stroke-linejoin:round;stroke-miterlimit:10"
   stroke-miterlimit="10"
   d="M 321.229,393.999 L 315.763,397.377 L 310.579,393.674 L 312.6,387.441 L 316.422,387.386 L 312.5,387.386 L 310.527,381.336 L 315.298,377.919 C 315.277,377.913 315.253,377.907 315.23,377.903 L 310.535,381.309 L 307.069,379.614 C 306.569,380.032 306.336,380.324 305.14,381.457 L 310.454,381.304 L 312.495,387.513 L 307.395,391.35 L 305.79,390.226 L 307.336,391.338 L 305.236,397.504 L 310.568,393.686 L 315.703,397.372 L 315.314,398.528 C 316.316,397.964 320.106,396.111 321.999,394.705 C 322.474,393.682 323.181,392.568 323.798,390.996 L 318.983,387.397 L 321.229,393.999 z"
   id="path53190" />
	<path
   style="fill:none;stroke:#fee7e1;stroke-width:0.40000001;stroke-linecap:round;stroke-linejoin:round;stroke-miterlimit:10"
   stroke-miterlimit="10"
   d="M 294.045,416.865 C 294.87,415.488 295.223,414.847 296.089,413.808 L 293.925,413.769 C 293.8,414.955 293.917,415.594 294.045,416.865 z"
   id="path53192" />
	<path
   style="fill:none;stroke:#fee7e1;stroke-width:0.40000001;stroke-linecap:round;stroke-linejoin:round;stroke-miterlimit:10"
   stroke-miterlimit="10"
   d="M 310.57,393.687 L 305.238,397.505 L 305.236,397.505 L 307.209,403.537 C 309.672,401.998 312.934,399.943 315.348,398.404 L 315.705,397.373 L 310.57,393.687 z"
   id="path53194" />
	<path
   style="fill:none;stroke:#fee7e1;stroke-width:0.40000001;stroke-linecap:round;stroke-linejoin:round;stroke-miterlimit:10"
   stroke-miterlimit="10"
   d="M 296.838,403.902 L 295.26,405.035 C 294.732,407.691 294.272,410.588 293.926,413.769 L 296.149,413.789 C 298.121,411.639 299.775,409.4 301.594,407.496 L 301.683,407.383 L 296.838,403.902 z"
   id="path53196" />
	<path
   style="fill:none;stroke:#fee7e1;stroke-width:0.40000001;stroke-linecap:round;stroke-linejoin:round;stroke-miterlimit:10"
   stroke-miterlimit="10"
   d="M 305.213,397.523 L 305.233,397.523 L 305.236,397.504 L 305.236,397.504 L 305.238,397.504 L 307.338,391.338 L 305.792,390.226 L 302.179,387.703 L 302.191,387.664 L 300.226,388.795 C 299.482,390.55 298.702,392.316 297.875,394.656 L 298.851,397.523 L 305.213,397.523 L 305.213,397.523 z"
   id="path53198" />
	
		<polygon
   style="fill:none;stroke:#fee7e1;stroke-width:0.40000001;stroke-linecap:round;stroke-linejoin:round;stroke-miterlimit:10"
   stroke-miterlimit="10"
   points="305.236,397.505 305.238,397.505 305.236,397.505 "
   id="polygon53200" />
	<path
   style="fill:none;stroke:#fee7e1;stroke-width:0.40000001;stroke-linecap:round;stroke-linejoin:round;stroke-miterlimit:10"
   stroke-miterlimit="10"
   d="M 298.82,397.641 L 297.402,396.675 C 296.774,398.852 296.075,401.233 295.502,403.899 L 296.848,403.868 L 298.82,397.641 z"
   id="path53202" />
	<path
   style="fill:none;stroke:#fee7e1;stroke-width:0.40000001;stroke-linecap:round;stroke-linejoin:round;stroke-miterlimit:10"
   stroke-miterlimit="10"
   d="M 302.206,387.652 L 305.791,390.227 L 307.396,391.351 L 312.496,387.514 L 310.455,381.305 L 305.162,381.436 C 305.072,381.534 304.094,382.785 303.29,383.678 L 302.19,387.665 L 302.206,387.652 z"
   id="path53204" />
	
		<polygon
   style="fill:none;stroke:#fee7e1;stroke-width:0.40000001;stroke-linecap:round;stroke-linejoin:round;stroke-miterlimit:10"
   stroke-miterlimit="10"
   points="302.19,387.665 302.178,387.704 305.792,390.227 302.206,387.652 302.19,387.665 "
   id="polygon53206" />
	<path
   style="fill:none;stroke:#fee7e1;stroke-width:0.40000001;stroke-linecap:round;stroke-linejoin:round;stroke-miterlimit:10"
   stroke-miterlimit="10"
   d="M 315.475,377.782 C 313.379,378.147 307.365,379.43 307.07,379.614 L 310.536,381.309 L 315.475,377.782 z"
   id="path53208" />
	
		<polygon
   style="fill:none;stroke:#fee7e1;stroke-width:0.40000001;stroke-linecap:round;stroke-linejoin:round;stroke-miterlimit:10"
   stroke-miterlimit="10"
   points="318.896,387.352 318.883,387.386 316.424,387.386 312.602,387.441 310.58,393.674 315.764,397.377 321.229,393.999 318.945,387.44 318.9,387.41 318.918,387.355 318.918,387.352 318.896,387.352 "
   id="polygon53210" />
	
		<polygon
   style="fill:none;stroke:#fee7e1;stroke-width:0.40000001;stroke-linecap:round;stroke-linejoin:round;stroke-miterlimit:10"
   stroke-miterlimit="10"
   points="318.896,387.352 316.424,387.386 318.883,387.386 318.896,387.352 "
   id="polygon53212" />
	<path
   style="fill:none;stroke:#fee7e1;stroke-width:0.40000001;stroke-linecap:round;stroke-linejoin:round;stroke-miterlimit:10"
   stroke-miterlimit="10"
   d="M 298.899,397.611 L 296.874,403.847 L 301.728,407.376 C 301.728,407.376 306.644,403.987 307.199,403.56 L 305.213,397.523 L 298.899,397.611 z"
   id="path53214" />
	
		<polygon
   style="fill:none;stroke:#fee7e1;stroke-width:0.40000001;stroke-linecap:round;stroke-linejoin:round;stroke-miterlimit:10"
   stroke-miterlimit="10"
   points="318.945,387.44 318.918,387.355 318.9,387.41 318.945,387.44 "
   id="polygon53216" />
</g><line
   style="fill:none;stroke:#fddfd8;stroke-width:7.11659718;stroke-linecap:round;stroke-linejoin:round;stroke-miterlimit:10"
   stroke-miterlimit="10"
   x1="596.15387"
   y1="359.36169"
   x2="611.25885"
   y2="370.21481"
   id="line53218" /><path
   style="fill:none;stroke:#fddfd8;stroke-width:7.11659718;stroke-linecap:round;stroke-linejoin:round;stroke-miterlimit:10"
   stroke-miterlimit="10"
   d="M 640.09863,306.89466 C 640.1698,306.66337 640.27655,306.44987 640.3833,306.20078 C 640.3833,306.20078 642.50049,301.93083 642.02012,299.38665 C 642.39374,297.58971 633.40903,270.99142 631.14951,260.44107 C 622.3961,219.75192 606.98867,179.61431 594.81929,140.25953 C 593.25363,138.16014 591.75915,135.91841 589.96221,133.96134 C 589.96221,133.92575 589.92663,133.87239 589.92663,133.8368 L 590.03337,133.56993 C 589.92663,133.48098 589.33951,133.0006 588.50331,132.39569 C 588.39656,132.32452 588.36097,132.25336 588.28981,132.18219 C 563.31055,114.1772 542.13867,98.502894 516.87475,84.927986 C 506.03974,78.220593 496.89491,72.93652 492.23353,71.103996 L 490.08077,72.651856 L 490.08077,72.651856 L 492.23353,71.103996 C 486.73596,72.064737 479.86845,73.274558 472.28927,74.626711 C 465.93771,75.427328 459.56836,76.494818 450.70819,78.469674 C 450.63703,78.487465 450.56586,78.487465 450.49469,78.523048 C 441.63453,80.0887 432.41853,81.7611 423.2915,83.451291 C 406.47854,86.04885 378.93731,93.841523 360.82557,97.951361 C 320.13643,49.078126 278.61108,20.647321 224.27585,20.647321 C 137.93373,20.647321 65.433396,79.999742 45.382383,160.13263 C 27.306226,200.75061 -1.7117,388.62878 109.7698,754.93783 C 110.14342,758.51392 111.72686,762.37467 112.15386,766.57347 C 126.83184,742.11017 148.85771,712.50512 148.85771,712.50512 C 149.17795,712.14929 205.23896,644.87965 231.65933,616.84026 C 234.29247,614.33166 243.98884,602.58928 249.21953,598.72852 C 278.52212,577.21861 339.76044,534.34111 345.95188,530.26685 C 345.95188,530.26685 437.86273,473.2807 479.31691,446.9315 C 484.52982,443.90694 487.12738,442.11001 490.81021,440.08178 C 530.18279,418.51849 605.52977,375.72994 609.74635,372.61643 C 618.16173,354.61144 629.24583,334.4181 640.08084,306.93024 L 640.11643,306.93024 C 640.09863,306.91245 640.09863,306.91245 640.09863,306.89466 z"
   id="path53220" /></svg>